<svg width="666" height="666" viewBox="0 0 666 666" fill="none" xmlns="http://www.w3.org/2000/svg">
<g clip-path="url(#clip0_229_4954)">
<rect x="125.5" y="374.5" width="41.5" height="41.5" fill="black"/>
<rect x="125.5" y="457.5" width="41.5" height="41.5" fill="black"/>
<rect x="208.5" y="374.5" width="41.5" height="41.5" fill="black"/>
<rect x="291.5" y="374.5" width="41.5" height="41.5" fill="black"/>
<path d="M292.207 395.957C292.598 395.567 292.598 394.933 292.207 394.543L285.843 388.179C285.453 387.788 284.819 387.788 284.429 388.179C284.038 388.569 284.038 389.203 284.429 389.593L290.086 395.25L284.429 400.907C284.038 401.297 284.038 401.931 284.429 402.321C284.819 402.712 285.453 402.712 285.843 402.321L292.207 395.957ZM250 396.25L291.5 396.25L291.5 394.25L250 394.25L250 396.25Z" fill="black"/>
<path d="M209.207 395.957C209.598 395.567 209.598 394.933 209.207 394.543L202.843 388.179C202.453 387.788 201.819 387.788 201.429 388.179C201.038 388.569 201.038 389.203 201.429 389.593L207.086 395.25L201.429 400.907C201.038 401.297 201.038 401.931 201.429 402.321C201.819 402.712 202.453 402.712 202.843 402.321L209.207 395.957ZM167 396.25L208.5 396.25L208.5 394.25L167 394.25L167 396.25Z" fill="black"/>
<path d="M125.129 458.428C125.641 458.634 126.223 458.384 126.428 457.871L129.771 449.515C129.976 449.002 129.727 448.42 129.214 448.215C128.701 448.01 128.119 448.26 127.914 448.772L124.943 456.2L117.515 453.229C117.002 453.024 116.42 453.273 116.215 453.786C116.01 454.299 116.26 454.881 116.772 455.086L125.129 458.428ZM62.3309 312.644L124.581 457.894L126.419 457.106L64.1691 311.856L62.3309 312.644Z" fill="black"/>
<rect x="42.5" y="291.5" width="41.5" height="41.5" fill="black"/>
<rect x="125.5" y="291.5" width="41.5" height="41.5" fill="black"/>
<rect x="208.5" y="291.5" width="41.5" height="41.5" fill="black"/>
<rect x="291.5" y="291.5" width="41.5" height="41.5" fill="black"/>
<rect x="208.5" y="208.5" width="41.5" height="41.5" fill="black"/>
<rect x="291.5" y="208.5" width="41.5" height="41.5" fill="black"/>
<path d="M210.268 250.012C210.275 249.46 209.833 249.007 209.281 249L200.282 248.889C199.729 248.882 199.276 249.324 199.269 249.877C199.262 250.429 199.705 250.882 200.257 250.889L208.256 250.988L208.157 258.987C208.151 259.539 208.593 259.992 209.145 259.999C209.697 260.006 210.151 259.564 210.157 259.012L210.268 250.012ZM146.948 312.197L209.967 250.716L208.57 249.284L145.552 310.766L146.948 312.197Z" fill="black"/>
<path d="M292.5 250C292.5 249.448 292.052 249 291.5 249L282.5 249C281.948 249 281.5 249.448 281.5 250C281.5 250.552 281.948 251 282.5 251L290.5 251L290.5 259C290.5 259.552 290.948 260 291.5 260C292.052 260 292.5 259.552 292.5 259L292.5 250ZM250.707 292.207L292.207 250.707L290.793 249.293L249.293 290.793L250.707 292.207Z" fill="black"/>
<path d="M126.207 312.189C126.598 311.798 126.598 311.165 126.207 310.774L119.843 304.41C119.453 304.02 118.819 304.02 118.429 304.41C118.038 304.801 118.038 305.434 118.429 305.825L124.086 311.481L118.429 317.138C118.038 317.529 118.038 318.162 118.429 318.553C118.819 318.943 119.453 318.943 119.843 318.553L126.207 312.189ZM84 312.481L125.5 312.481L125.5 310.481L84 310.481L84 312.481Z" fill="black"/>
<path d="M209.207 312.189C209.598 311.798 209.598 311.165 209.207 310.774L202.843 304.41C202.453 304.02 201.819 304.02 201.429 304.41C201.038 304.801 201.038 305.434 201.429 305.825L207.086 311.481L201.429 317.138C201.038 317.529 201.038 318.162 201.429 318.553C201.819 318.943 202.453 318.943 202.843 318.553L209.207 312.189ZM167 312.481L208.5 312.481L208.5 310.481L167 310.481L167 312.481Z" fill="black"/>
<path d="M292.207 312.189C292.598 311.798 292.598 311.165 292.207 310.774L285.843 304.41C285.453 304.02 284.819 304.02 284.429 304.41C284.038 304.801 284.038 305.434 284.429 305.825L290.086 311.481L284.429 317.138C284.038 317.529 284.038 318.162 284.429 318.553C284.819 318.943 285.453 318.943 285.843 318.553L292.207 312.189ZM250 312.481L291.5 312.481L291.5 310.481L250 310.481L250 312.481Z" fill="black"/>
<path d="M292.207 229.957C292.598 229.567 292.598 228.933 292.207 228.543L285.843 222.179C285.453 221.788 284.819 221.788 284.429 222.179C284.038 222.569 284.038 223.203 284.429 223.593L290.086 229.25L284.429 234.907C284.038 235.297 284.038 235.931 284.429 236.321C284.819 236.712 285.453 236.712 285.843 236.321L292.207 229.957ZM250 230.25L291.5 230.25L291.5 228.25L250 228.25L250 230.25Z" fill="black"/>
<path d="M123.957 374.731C124.509 374.735 124.959 374.29 124.963 373.738L125.019 364.738C125.023 364.186 124.578 363.735 124.026 363.732C123.473 363.728 123.023 364.173 123.019 364.725L122.969 372.725L114.969 372.675C114.417 372.672 113.967 373.117 113.963 373.669C113.96 374.221 114.405 374.672 114.957 374.675L123.957 374.731ZM62.2885 312.703L123.251 374.434L124.674 373.029L63.7115 311.297L62.2885 312.703Z" fill="black"/>
<rect x="374.5" y="291.5" width="41.5" height="41.5" fill="black"/>
<path d="M375.207 312.189C375.598 311.798 375.598 311.165 375.207 310.774L368.843 304.41C368.453 304.02 367.819 304.02 367.429 304.41C367.038 304.801 367.038 305.434 367.429 305.825L373.086 311.481L367.429 317.138C367.038 317.529 367.038 318.162 367.429 318.553C367.819 318.943 368.453 318.943 368.843 318.553L375.207 312.189ZM333 312.481L374.5 312.481L374.5 310.481L333 310.481L333 312.481Z" fill="black"/>
<rect x="1" y="333" width="41.5" height="41.5" stroke="black" stroke-opacity="0.2"/>
<rect x="1" y="374.5" width="41.5" height="41.5" stroke="black" stroke-opacity="0.2"/>
<rect x="1" y="416" width="41.5" height="41.5" stroke="black" stroke-opacity="0.2"/>
<rect x="1" y="457.5" width="41.5" height="41.5" stroke="black" stroke-opacity="0.2"/>
<rect x="1" y="499" width="41.5" height="41.5" stroke="black" stroke-opacity="0.2"/>
<rect x="1" y="540.5" width="41.5" height="41.5" stroke="black" stroke-opacity="0.2"/>
<rect x="1" y="582" width="41.5" height="41.5" stroke="black" stroke-opacity="0.2"/>
<rect x="1" y="623.5" width="41.5" height="41.5" stroke="black" stroke-opacity="0.2"/>
<rect x="84" y="333" width="41.5" height="41.5" stroke="black" stroke-opacity="0.2"/>
<rect x="84" y="374.5" width="41.5" height="41.5" stroke="black" stroke-opacity="0.2"/>
<rect x="84" y="416" width="41.5" height="41.5" stroke="black" stroke-opacity="0.2"/>
<rect x="84" y="457.5" width="41.5" height="41.5" stroke="black" stroke-opacity="0.2"/>
<rect x="84" y="499" width="41.5" height="41.5" stroke="black" stroke-opacity="0.2"/>
<rect x="84" y="540.5" width="41.5" height="41.5" stroke="black" stroke-opacity="0.2"/>
<rect x="84" y="582" width="41.5" height="41.5" stroke="black" stroke-opacity="0.2"/>
<rect x="84" y="623.5" width="41.5" height="41.5" stroke="black" stroke-opacity="0.2"/>
<rect x="167" y="333" width="41.5" height="41.5" stroke="black" stroke-opacity="0.2"/>
<rect x="167" y="374.5" width="41.5" height="41.5" stroke="black" stroke-opacity="0.2"/>
<rect x="167" y="416" width="41.5" height="41.5" stroke="black" stroke-opacity="0.2"/>
<rect x="167" y="457.5" width="41.5" height="41.5" stroke="black" stroke-opacity="0.2"/>
<rect x="167" y="499" width="41.5" height="41.5" stroke="black" stroke-opacity="0.2"/>
<rect x="167" y="540.5" width="41.5" height="41.5" stroke="black" stroke-opacity="0.2"/>
<rect x="167" y="582" width="41.5" height="41.5" stroke="black" stroke-opacity="0.2"/>
<rect x="167" y="623.5" width="41.5" height="41.5" stroke="black" stroke-opacity="0.2"/>
<rect x="250" y="333" width="41.5" height="41.5" stroke="black" stroke-opacity="0.2"/>
<rect x="250" y="374.5" width="41.5" height="41.5" stroke="black" stroke-opacity="0.2"/>
<rect x="250" y="416" width="41.5" height="41.5" stroke="black" stroke-opacity="0.2"/>
<rect x="250" y="457.5" width="41.5" height="41.5" stroke="black" stroke-opacity="0.2"/>
<rect x="250" y="499" width="41.5" height="41.5" stroke="black" stroke-opacity="0.2"/>
<rect x="250" y="540.5" width="41.5" height="41.5" stroke="black" stroke-opacity="0.2"/>
<rect x="250" y="582" width="41.5" height="41.5" stroke="black" stroke-opacity="0.2"/>
<rect x="250" y="623.5" width="41.5" height="41.5" stroke="black" stroke-opacity="0.2"/>
<rect x="42.5" y="333" width="41.5" height="41.5" stroke="black" stroke-opacity="0.2"/>
<rect x="42.5" y="374.5" width="41.5" height="41.5" stroke="black" stroke-opacity="0.2"/>
<rect x="42.5" y="416" width="41.5" height="41.5" stroke="black" stroke-opacity="0.2"/>
<rect x="42.5" y="457.5" width="41.5" height="41.5" stroke="black" stroke-opacity="0.2"/>
<rect x="42.5" y="499" width="41.5" height="41.5" stroke="black" stroke-opacity="0.2"/>
<rect x="42.5" y="540.5" width="41.5" height="41.5" stroke="black" stroke-opacity="0.2"/>
<rect x="42.5" y="582" width="41.5" height="41.5" stroke="black" stroke-opacity="0.2"/>
<rect x="42.5" y="623.5" width="41.5" height="41.5" stroke="black" stroke-opacity="0.2"/>
<rect x="125.5" y="333" width="41.5" height="41.5" stroke="black" stroke-opacity="0.2"/>
<rect x="125.5" y="374.5" width="41.5" height="41.5" stroke="black" stroke-opacity="0.2"/>
<rect x="125.5" y="416" width="41.5" height="41.5" stroke="black" stroke-opacity="0.2"/>
<rect x="125.5" y="457.5" width="41.5" height="41.5" stroke="black" stroke-opacity="0.2"/>
<rect x="125.5" y="499" width="41.5" height="41.5" stroke="black" stroke-opacity="0.2"/>
<rect x="125.5" y="540.5" width="41.5" height="41.5" stroke="black" stroke-opacity="0.2"/>
<rect x="125.5" y="582" width="41.5" height="41.5" stroke="black" stroke-opacity="0.2"/>
<rect x="125.5" y="623.5" width="41.5" height="41.5" stroke="black" stroke-opacity="0.2"/>
<rect x="208.5" y="333" width="41.5" height="41.5" stroke="black" stroke-opacity="0.2"/>
<rect x="208.5" y="374.5" width="41.5" height="41.5" stroke="black" stroke-opacity="0.2"/>
<rect x="208.5" y="416" width="41.5" height="41.5" stroke="black" stroke-opacity="0.2"/>
<rect x="208.5" y="457.5" width="41.5" height="41.5" stroke="black" stroke-opacity="0.2"/>
<rect x="208.5" y="499" width="41.5" height="41.5" stroke="black" stroke-opacity="0.2"/>
<rect x="208.5" y="540.5" width="41.5" height="41.5" stroke="black" stroke-opacity="0.2"/>
<rect x="208.5" y="582" width="41.5" height="41.5" stroke="black" stroke-opacity="0.2"/>
<rect x="208.5" y="623.5" width="41.5" height="41.5" stroke="black" stroke-opacity="0.2"/>
<rect x="291.5" y="333" width="41.5" height="41.5" stroke="black" stroke-opacity="0.2"/>
<rect x="291.5" y="374.5" width="41.5" height="41.5" stroke="black" stroke-opacity="0.2"/>
<rect x="291.5" y="416" width="41.5" height="41.5" stroke="black" stroke-opacity="0.2"/>
<rect x="291.5" y="457.5" width="41.5" height="41.5" stroke="black" stroke-opacity="0.2"/>
<rect x="291.5" y="499" width="41.5" height="41.5" stroke="black" stroke-opacity="0.2"/>
<rect x="291.5" y="540.5" width="41.5" height="41.5" stroke="black" stroke-opacity="0.2"/>
<rect x="291.5" y="582" width="41.5" height="41.5" stroke="black" stroke-opacity="0.2"/>
<rect x="291.5" y="623.5" width="41.5" height="41.5" stroke="black" stroke-opacity="0.2"/>
<rect x="1" y="1" width="41.5" height="41.5" stroke="black" stroke-opacity="0.2"/>
<rect x="1" y="42.5" width="41.5" height="41.5" stroke="black" stroke-opacity="0.2"/>
<rect x="1" y="84" width="41.5" height="41.5" stroke="black" stroke-opacity="0.2"/>
<rect x="1" y="125.5" width="41.5" height="41.5" stroke="black" stroke-opacity="0.2"/>
<rect x="1" y="167" width="41.5" height="41.5" stroke="black" stroke-opacity="0.2"/>
<rect x="1" y="208.5" width="41.5" height="41.5" stroke="black" stroke-opacity="0.2"/>
<rect x="1" y="250" width="41.5" height="41.5" stroke="black" stroke-opacity="0.2"/>
<rect x="1" y="291.5" width="41.5" height="41.5" stroke="black" stroke-opacity="0.2"/>
<rect x="84" y="1" width="41.5" height="41.5" stroke="black" stroke-opacity="0.2"/>
<rect x="84" y="42.5" width="41.5" height="41.5" stroke="black" stroke-opacity="0.2"/>
<rect x="84" y="84" width="41.5" height="41.5" stroke="black" stroke-opacity="0.2"/>
<rect x="84" y="125.5" width="41.5" height="41.5" stroke="black" stroke-opacity="0.2"/>
<rect x="84" y="167" width="41.5" height="41.5" stroke="black" stroke-opacity="0.2"/>
<rect x="84" y="208.5" width="41.5" height="41.5" stroke="black" stroke-opacity="0.2"/>
<rect x="84" y="250" width="41.5" height="41.5" stroke="black" stroke-opacity="0.2"/>
<rect x="84" y="291.5" width="41.5" height="41.5" stroke="black" stroke-opacity="0.2"/>
<rect x="167" y="1" width="41.5" height="41.5" stroke="black" stroke-opacity="0.2"/>
<rect x="167" y="42.5" width="41.5" height="41.5" stroke="black" stroke-opacity="0.2"/>
<rect x="167" y="84" width="41.5" height="41.5" stroke="black" stroke-opacity="0.2"/>
<rect x="167" y="125.5" width="41.5" height="41.5" stroke="black" stroke-opacity="0.2"/>
<rect x="167" y="167" width="41.5" height="41.5" stroke="black" stroke-opacity="0.2"/>
<rect x="167" y="208.5" width="41.5" height="41.5" stroke="black" stroke-opacity="0.2"/>
<rect x="167" y="250" width="41.5" height="41.5" stroke="black" stroke-opacity="0.2"/>
<rect x="167" y="291.5" width="41.5" height="41.5" stroke="black" stroke-opacity="0.2"/>
<rect x="250" y="1" width="41.5" height="41.5" stroke="black" stroke-opacity="0.2"/>
<rect x="250" y="42.5" width="41.5" height="41.5" stroke="black" stroke-opacity="0.2"/>
<rect x="250" y="84" width="41.5" height="41.5" stroke="black" stroke-opacity="0.2"/>
<rect x="250" y="125.5" width="41.5" height="41.5" stroke="black" stroke-opacity="0.2"/>
<rect x="250" y="167" width="41.5" height="41.5" stroke="black" stroke-opacity="0.2"/>
<rect x="250" y="208.5" width="41.5" height="41.5" stroke="black" stroke-opacity="0.2"/>
<rect x="250" y="250" width="41.5" height="41.5" stroke="black" stroke-opacity="0.2"/>
<rect x="250" y="291.5" width="41.5" height="41.5" stroke="black" stroke-opacity="0.2"/>
<rect x="42.5" y="1" width="41.5" height="41.5" stroke="black" stroke-opacity="0.2"/>
<rect x="42.5" y="42.5" width="41.5" height="41.5" stroke="black" stroke-opacity="0.2"/>
<rect x="42.5" y="84" width="41.5" height="41.5" stroke="black" stroke-opacity="0.2"/>
<rect x="42.5" y="125.5" width="41.5" height="41.5" stroke="black" stroke-opacity="0.2"/>
<rect x="42.5" y="167" width="41.5" height="41.5" stroke="black" stroke-opacity="0.2"/>
<rect x="42.5" y="208.5" width="41.5" height="41.5" stroke="black" stroke-opacity="0.2"/>
<rect x="42.5" y="250" width="41.5" height="41.5" stroke="black" stroke-opacity="0.2"/>
<rect x="42.5" y="291.5" width="41.5" height="41.5" stroke="black" stroke-opacity="0.2"/>
<rect x="125.5" y="1" width="41.5" height="41.5" stroke="black" stroke-opacity="0.2"/>
<rect x="125.5" y="42.5" width="41.5" height="41.5" stroke="black" stroke-opacity="0.2"/>
<rect x="125.5" y="84" width="41.5" height="41.5" stroke="black" stroke-opacity="0.2"/>
<rect x="125.5" y="125.5" width="41.5" height="41.5" stroke="black" stroke-opacity="0.2"/>
<rect x="125.5" y="167" width="41.5" height="41.5" stroke="black" stroke-opacity="0.2"/>
<rect x="125.5" y="208.5" width="41.5" height="41.5" stroke="black" stroke-opacity="0.2"/>
<rect x="125.5" y="250" width="41.5" height="41.5" stroke="black" stroke-opacity="0.2"/>
<rect x="125.5" y="291.5" width="41.5" height="41.5" stroke="black" stroke-opacity="0.2"/>
<rect x="208.5" y="1" width="41.5" height="41.5" stroke="black" stroke-opacity="0.2"/>
<rect x="208.5" y="42.5" width="41.5" height="41.5" stroke="black" stroke-opacity="0.2"/>
<rect x="208.5" y="84" width="41.5" height="41.5" stroke="black" stroke-opacity="0.2"/>
<rect x="208.5" y="125.5" width="41.5" height="41.5" stroke="black" stroke-opacity="0.2"/>
<rect x="208.5" y="167" width="41.5" height="41.5" stroke="black" stroke-opacity="0.2"/>
<rect x="208.5" y="208.5" width="41.5" height="41.5" stroke="black" stroke-opacity="0.2"/>
<rect x="208.5" y="250" width="41.5" height="41.5" stroke="black" stroke-opacity="0.2"/>
<rect x="208.5" y="291.5" width="41.5" height="41.5" stroke="black" stroke-opacity="0.2"/>
<rect x="291.5" y="1" width="41.5" height="41.5" stroke="black" stroke-opacity="0.2"/>
<rect x="291.5" y="42.5" width="41.5" height="41.5" stroke="black" stroke-opacity="0.2"/>
<rect x="291.5" y="84" width="41.5" height="41.5" stroke="black" stroke-opacity="0.2"/>
<rect x="291.5" y="125.5" width="41.5" height="41.5" stroke="black" stroke-opacity="0.2"/>
<rect x="291.5" y="167" width="41.5" height="41.5" stroke="black" stroke-opacity="0.2"/>
<rect x="291.5" y="208.5" width="41.5" height="41.5" stroke="black" stroke-opacity="0.2"/>
<rect x="291.5" y="250" width="41.5" height="41.5" stroke="black" stroke-opacity="0.2"/>
<rect x="291.5" y="291.5" width="41.5" height="41.5" stroke="black" stroke-opacity="0.2"/>
<rect x="333" y="1" width="41.5" height="41.5" stroke="black" stroke-opacity="0.2"/>
<rect x="333" y="42.5" width="41.5" height="41.5" stroke="black" stroke-opacity="0.2"/>
<rect x="333" y="84" width="41.5" height="41.5" stroke="black" stroke-opacity="0.2"/>
<rect x="333" y="125.5" width="41.5" height="41.5" stroke="black" stroke-opacity="0.2"/>
<rect x="333" y="167" width="41.5" height="41.5" stroke="black" stroke-opacity="0.2"/>
<rect x="333" y="208.5" width="41.5" height="41.5" stroke="black" stroke-opacity="0.2"/>
<rect x="333" y="250" width="41.5" height="41.5" stroke="black" stroke-opacity="0.2"/>
<rect x="333" y="291.5" width="41.5" height="41.5" stroke="black" stroke-opacity="0.2"/>
<rect x="416" y="1" width="41.5" height="41.5" stroke="black" stroke-opacity="0.2"/>
<rect x="416" y="42.5" width="41.5" height="41.5" stroke="black" stroke-opacity="0.2"/>
<rect x="416" y="84" width="41.5" height="41.5" stroke="black" stroke-opacity="0.2"/>
<rect x="416" y="125.5" width="41.5" height="41.5" stroke="black" stroke-opacity="0.2"/>
<rect x="416" y="167" width="41.5" height="41.5" stroke="black" stroke-opacity="0.2"/>
<rect x="416" y="208.5" width="41.5" height="41.5" stroke="black" stroke-opacity="0.2"/>
<rect x="416" y="250" width="41.5" height="41.5" stroke="black" stroke-opacity="0.2"/>
<rect x="416" y="291.5" width="41.5" height="41.5" stroke="black" stroke-opacity="0.2"/>
<rect x="499" y="1" width="41.5" height="41.5" stroke="black" stroke-opacity="0.2"/>
<rect x="499" y="42.5" width="41.5" height="41.5" stroke="black" stroke-opacity="0.2"/>
<rect x="499" y="84" width="41.5" height="41.5" stroke="black" stroke-opacity="0.2"/>
<rect x="499" y="125.5" width="41.5" height="41.5" stroke="black" stroke-opacity="0.2"/>
<rect x="499" y="167" width="41.5" height="41.5" stroke="black" stroke-opacity="0.2"/>
<rect x="499" y="208.5" width="41.5" height="41.5" stroke="black" stroke-opacity="0.2"/>
<rect x="499" y="250" width="41.5" height="41.5" stroke="black" stroke-opacity="0.2"/>
<rect x="499" y="291.5" width="41.5" height="41.5" stroke="black" stroke-opacity="0.2"/>
<rect x="582" y="1" width="41.5" height="41.5" stroke="black" stroke-opacity="0.2"/>
<rect x="582" y="42.5" width="41.5" height="41.5" stroke="black" stroke-opacity="0.2"/>
<rect x="582" y="84" width="41.5" height="41.5" stroke="black" stroke-opacity="0.2"/>
<rect x="582" y="125.5" width="41.5" height="41.5" stroke="black" stroke-opacity="0.2"/>
<rect x="582" y="167" width="41.5" height="41.5" stroke="black" stroke-opacity="0.2"/>
<rect x="582" y="208.5" width="41.5" height="41.5" stroke="black" stroke-opacity="0.2"/>
<rect x="582" y="250" width="41.5" height="41.5" stroke="black" stroke-opacity="0.2"/>
<rect x="582" y="291.5" width="41.5" height="41.5" stroke="black" stroke-opacity="0.2"/>
<rect x="374.5" y="1" width="41.5" height="41.5" stroke="black" stroke-opacity="0.2"/>
<rect x="374.5" y="42.5" width="41.5" height="41.5" stroke="black" stroke-opacity="0.2"/>
<rect x="374.5" y="84" width="41.5" height="41.5" stroke="black" stroke-opacity="0.2"/>
<rect x="374.5" y="125.5" width="41.5" height="41.5" stroke="black" stroke-opacity="0.2"/>
<rect x="374.5" y="167" width="41.5" height="41.5" stroke="black" stroke-opacity="0.2"/>
<rect x="374.5" y="208.5" width="41.5" height="41.5" stroke="black" stroke-opacity="0.2"/>
<rect x="374.5" y="250" width="41.5" height="41.5" stroke="black" stroke-opacity="0.2"/>
<rect x="374.5" y="291.5" width="41.5" height="41.5" stroke="black" stroke-opacity="0.2"/>
<rect x="457.5" y="1" width="41.5" height="41.5" stroke="black" stroke-opacity="0.2"/>
<rect x="457.5" y="42.5" width="41.5" height="41.5" stroke="black" stroke-opacity="0.2"/>
<rect x="457.5" y="84" width="41.5" height="41.5" stroke="black" stroke-opacity="0.2"/>
<rect x="457.5" y="125.5" width="41.5" height="41.5" stroke="black" stroke-opacity="0.2"/>
<rect x="457.5" y="167" width="41.5" height="41.5" stroke="black" stroke-opacity="0.2"/>
<rect x="457.5" y="208.5" width="41.5" height="41.5" stroke="black" stroke-opacity="0.2"/>
<rect x="457.5" y="250" width="41.5" height="41.5" stroke="black" stroke-opacity="0.2"/>
<rect x="457.5" y="291.5" width="41.5" height="41.5" stroke="black" stroke-opacity="0.2"/>
<rect x="540.5" y="1" width="41.5" height="41.5" stroke="black" stroke-opacity="0.2"/>
<rect x="540.5" y="42.5" width="41.5" height="41.5" stroke="black" stroke-opacity="0.2"/>
<rect x="540.5" y="84" width="41.5" height="41.5" stroke="black" stroke-opacity="0.2"/>
<rect x="540.5" y="125.5" width="41.5" height="41.5" stroke="black" stroke-opacity="0.2"/>
<rect x="540.5" y="167" width="41.5" height="41.5" stroke="black" stroke-opacity="0.2"/>
<rect x="540.5" y="208.5" width="41.5" height="41.5" stroke="black" stroke-opacity="0.2"/>
<rect x="540.5" y="250" width="41.5" height="41.5" stroke="black" stroke-opacity="0.2"/>
<rect x="540.5" y="291.5" width="41.5" height="41.5" stroke="black" stroke-opacity="0.2"/>
<rect x="623.5" y="1" width="41.5" height="41.5" stroke="black" stroke-opacity="0.2"/>
<rect x="623.5" y="42.5" width="41.5" height="41.5" stroke="black" stroke-opacity="0.2"/>
<rect x="623.5" y="84" width="41.5" height="41.5" stroke="black" stroke-opacity="0.2"/>
<rect x="623.5" y="125.5" width="41.5" height="41.5" stroke="black" stroke-opacity="0.2"/>
<rect x="623.5" y="167" width="41.5" height="41.5" stroke="black" stroke-opacity="0.2"/>
<rect x="623.5" y="208.5" width="41.5" height="41.5" stroke="black" stroke-opacity="0.2"/>
<rect x="623.5" y="250" width="41.5" height="41.5" stroke="black" stroke-opacity="0.2"/>
<rect x="623.5" y="291.5" width="41.5" height="41.5" stroke="black" stroke-opacity="0.2"/>
<rect x="333" y="333" width="41.5" height="41.5" stroke="black" stroke-opacity="0.2"/>
<rect x="333" y="374.5" width="41.5" height="41.5" stroke="black" stroke-opacity="0.2"/>
<rect x="333" y="416" width="41.5" height="41.5" stroke="black" stroke-opacity="0.2"/>
<rect x="333" y="457.5" width="41.5" height="41.5" stroke="black" stroke-opacity="0.2"/>
<rect x="333" y="499" width="41.5" height="41.5" stroke="black" stroke-opacity="0.2"/>
<rect x="333" y="540.5" width="41.5" height="41.5" stroke="black" stroke-opacity="0.2"/>
<rect x="333" y="582" width="41.5" height="41.5" stroke="black" stroke-opacity="0.2"/>
<rect x="333" y="623.5" width="41.5" height="41.5" stroke="black" stroke-opacity="0.2"/>
<rect x="416" y="333" width="41.5" height="41.5" stroke="black" stroke-opacity="0.2"/>
<rect x="416" y="374.5" width="41.5" height="41.5" stroke="black" stroke-opacity="0.2"/>
<rect x="416" y="416" width="41.5" height="41.5" stroke="black" stroke-opacity="0.2"/>
<rect x="416" y="457.5" width="41.5" height="41.5" stroke="black" stroke-opacity="0.2"/>
<rect x="416" y="499" width="41.5" height="41.5" stroke="black" stroke-opacity="0.2"/>
<rect x="416" y="540.5" width="41.5" height="41.5" stroke="black" stroke-opacity="0.2"/>
<rect x="416" y="582" width="41.5" height="41.5" stroke="black" stroke-opacity="0.2"/>
<rect x="416" y="623.5" width="41.5" height="41.5" stroke="black" stroke-opacity="0.2"/>
<rect x="499" y="333" width="41.5" height="41.5" stroke="black" stroke-opacity="0.2"/>
<rect x="499" y="374.5" width="41.5" height="41.5" stroke="black" stroke-opacity="0.2"/>
<rect x="499" y="416" width="41.5" height="41.5" stroke="black" stroke-opacity="0.2"/>
<rect x="499" y="457.5" width="41.5" height="41.5" stroke="black" stroke-opacity="0.2"/>
<rect x="499" y="499" width="41.5" height="41.5" stroke="black" stroke-opacity="0.2"/>
<rect x="499" y="540.5" width="41.5" height="41.5" stroke="black" stroke-opacity="0.2"/>
<rect x="499" y="582" width="41.5" height="41.5" stroke="black" stroke-opacity="0.2"/>
<rect x="499" y="623.5" width="41.5" height="41.5" stroke="black" stroke-opacity="0.2"/>
<rect x="582" y="333" width="41.5" height="41.5" stroke="black" stroke-opacity="0.2"/>
<rect x="582" y="374.5" width="41.5" height="41.5" stroke="black" stroke-opacity="0.2"/>
<rect x="582" y="416" width="41.5" height="41.5" stroke="black" stroke-opacity="0.2"/>
<rect x="582" y="457.5" width="41.5" height="41.5" stroke="black" stroke-opacity="0.2"/>
<rect x="582" y="499" width="41.5" height="41.5" stroke="black" stroke-opacity="0.2"/>
<rect x="582" y="540.5" width="41.5" height="41.5" stroke="black" stroke-opacity="0.2"/>
<rect x="582" y="582" width="41.5" height="41.5" stroke="black" stroke-opacity="0.2"/>
<rect x="582" y="623.5" width="41.5" height="41.5" stroke="black" stroke-opacity="0.2"/>
<rect x="374.5" y="333" width="41.5" height="41.5" stroke="black" stroke-opacity="0.2"/>
<rect x="374.5" y="374.5" width="41.5" height="41.5" stroke="black" stroke-opacity="0.2"/>
<rect x="374.5" y="416" width="41.5" height="41.5" stroke="black" stroke-opacity="0.2"/>
<rect x="374.5" y="457.5" width="41.5" height="41.5" stroke="black" stroke-opacity="0.2"/>
<rect x="374.5" y="499" width="41.5" height="41.5" stroke="black" stroke-opacity="0.2"/>
<rect x="374.5" y="540.5" width="41.5" height="41.5" stroke="black" stroke-opacity="0.2"/>
<rect x="374.5" y="582" width="41.5" height="41.5" stroke="black" stroke-opacity="0.2"/>
<rect x="374.5" y="623.5" width="41.5" height="41.5" stroke="black" stroke-opacity="0.2"/>
<rect x="457.5" y="333" width="41.5" height="41.5" stroke="black" stroke-opacity="0.2"/>
<rect x="457.5" y="374.5" width="41.5" height="41.5" stroke="black" stroke-opacity="0.2"/>
<rect x="457.5" y="416" width="41.5" height="41.5" stroke="black" stroke-opacity="0.2"/>
<rect x="457.5" y="457.5" width="41.5" height="41.5" stroke="black" stroke-opacity="0.2"/>
<rect x="457.5" y="499" width="41.5" height="41.5" stroke="black" stroke-opacity="0.2"/>
<rect x="457.5" y="540.5" width="41.5" height="41.5" stroke="black" stroke-opacity="0.2"/>
<rect x="457.5" y="582" width="41.5" height="41.5" stroke="black" stroke-opacity="0.2"/>
<rect x="457.5" y="623.5" width="41.5" height="41.5" stroke="black" stroke-opacity="0.2"/>
<rect x="540.5" y="333" width="41.5" height="41.5" stroke="black" stroke-opacity="0.2"/>
<rect x="540.5" y="374.5" width="41.5" height="41.5" stroke="black" stroke-opacity="0.2"/>
<rect x="540.5" y="416" width="41.5" height="41.5" stroke="black" stroke-opacity="0.2"/>
<rect x="540.5" y="457.5" width="41.5" height="41.5" stroke="black" stroke-opacity="0.2"/>
<rect x="540.5" y="499" width="41.5" height="41.5" stroke="black" stroke-opacity="0.2"/>
<rect x="540.5" y="540.5" width="41.5" height="41.5" stroke="black" stroke-opacity="0.2"/>
<rect x="540.5" y="582" width="41.5" height="41.5" stroke="black" stroke-opacity="0.2"/>
<rect x="540.5" y="623.5" width="41.5" height="41.5" stroke="black" stroke-opacity="0.2"/>
<rect x="623.5" y="333" width="41.5" height="41.5" stroke="black" stroke-opacity="0.2"/>
<rect x="623.5" y="374.5" width="41.5" height="41.5" stroke="black" stroke-opacity="0.2"/>
<rect x="623.5" y="416" width="41.5" height="41.5" stroke="black" stroke-opacity="0.2"/>
<rect x="623.5" y="457.5" width="41.5" height="41.5" stroke="black" stroke-opacity="0.2"/>
<rect x="623.5" y="499" width="41.5" height="41.5" stroke="black" stroke-opacity="0.2"/>
<rect x="623.5" y="540.5" width="41.5" height="41.5" stroke="black" stroke-opacity="0.2"/>
<rect x="623.5" y="582" width="41.5" height="41.5" stroke="black" stroke-opacity="0.2"/>
<rect x="623.5" y="623.5" width="41.5" height="41.5" stroke="black" stroke-opacity="0.2"/>
<rect width="84" height="23" transform="translate(63 289)" fill="white"/>
<path d="M72.2285 303.406C72.2285 303.074 72.1764 302.781 72.0723 302.527C71.9746 302.267 71.7988 302.033 71.5449 301.824C71.2975 301.616 70.9525 301.417 70.5098 301.229C70.0736 301.04 69.5202 300.848 68.8496 300.652C68.1465 300.444 67.5117 300.213 66.9453 299.959C66.3789 299.699 65.8939 299.402 65.4902 299.07C65.0866 298.738 64.7773 298.357 64.5625 297.928C64.3477 297.498 64.2402 297.007 64.2402 296.453C64.2402 295.9 64.3542 295.389 64.582 294.92C64.8099 294.451 65.1354 294.044 65.5586 293.699C65.9883 293.348 66.4993 293.074 67.0918 292.879C67.6842 292.684 68.3451 292.586 69.0742 292.586C70.1419 292.586 71.0469 292.791 71.7891 293.201C72.5378 293.605 73.1074 294.135 73.498 294.793C73.8887 295.444 74.084 296.141 74.084 296.883H72.209C72.209 296.349 72.0951 295.877 71.8672 295.467C71.6393 295.05 71.2943 294.725 70.832 294.49C70.3698 294.249 69.7839 294.129 69.0742 294.129C68.4036 294.129 67.8503 294.23 67.4141 294.432C66.9779 294.633 66.6523 294.907 66.4375 295.252C66.2292 295.597 66.125 295.991 66.125 296.434C66.125 296.733 66.1868 297.007 66.3105 297.254C66.4408 297.495 66.6393 297.719 66.9062 297.928C67.1797 298.136 67.5247 298.328 67.9414 298.504C68.3646 298.68 68.8691 298.849 69.4551 299.012C70.2624 299.24 70.959 299.493 71.5449 299.773C72.1309 300.053 72.6126 300.369 72.9902 300.721C73.3743 301.066 73.6576 301.46 73.8398 301.902C74.0286 302.339 74.123 302.833 74.123 303.387C74.123 303.966 74.0059 304.49 73.7715 304.959C73.5371 305.428 73.2018 305.828 72.7656 306.16C72.3294 306.492 71.8053 306.749 71.1934 306.932C70.5879 307.107 69.9108 307.195 69.1621 307.195C68.5046 307.195 67.8568 307.104 67.2188 306.922C66.5872 306.74 66.0111 306.466 65.4902 306.102C64.9759 305.737 64.5625 305.288 64.25 304.754C63.944 304.214 63.791 303.589 63.791 302.879H65.666C65.666 303.367 65.7604 303.787 65.9492 304.139C66.138 304.484 66.3952 304.77 66.7207 304.998C67.0527 305.226 67.4271 305.395 67.8438 305.506C68.2669 305.61 68.7064 305.662 69.1621 305.662C69.8197 305.662 70.3763 305.571 70.832 305.389C71.2878 305.206 71.6328 304.946 71.8672 304.607C72.1081 304.269 72.2285 303.868 72.2285 303.406ZM80.373 307H77.4043L77.4238 305.467H80.373C81.3887 305.467 82.235 305.255 82.9121 304.832C83.5892 304.402 84.097 303.803 84.4355 303.035C84.7806 302.26 84.9531 301.355 84.9531 300.32V299.451C84.9531 298.637 84.8555 297.915 84.6602 297.283C84.4648 296.645 84.1784 296.108 83.8008 295.672C83.4232 295.229 82.9609 294.894 82.4141 294.666C81.8737 294.438 81.252 294.324 80.5488 294.324H77.3457V292.781H80.5488C81.4798 292.781 82.3294 292.938 83.0977 293.25C83.8659 293.556 84.5267 294.002 85.0801 294.588C85.64 295.167 86.0697 295.87 86.3691 296.697C86.6686 297.518 86.8184 298.442 86.8184 299.471V300.32C86.8184 301.349 86.6686 302.277 86.3691 303.104C86.0697 303.924 85.6367 304.624 85.0703 305.203C84.5104 305.783 83.8333 306.229 83.0391 306.541C82.2513 306.847 81.3626 307 80.373 307ZM78.4102 292.781V307H76.5254V292.781H78.4102ZM91.5352 292.781V307H89.6504V292.781H91.5352ZM97.4922 299.178V300.721H91.125V299.178H97.4922ZM98.459 292.781V294.324H91.125V292.781H98.459ZM108.283 303.406C108.283 303.074 108.231 302.781 108.127 302.527C108.029 302.267 107.854 302.033 107.6 301.824C107.352 301.616 107.007 301.417 106.564 301.229C106.128 301.04 105.575 300.848 104.904 300.652C104.201 300.444 103.566 300.213 103 299.959C102.434 299.699 101.949 299.402 101.545 299.07C101.141 298.738 100.832 298.357 100.617 297.928C100.402 297.498 100.295 297.007 100.295 296.453C100.295 295.9 100.409 295.389 100.637 294.92C100.865 294.451 101.19 294.044 101.613 293.699C102.043 293.348 102.554 293.074 103.146 292.879C103.739 292.684 104.4 292.586 105.129 292.586C106.197 292.586 107.102 292.791 107.844 293.201C108.592 293.605 109.162 294.135 109.553 294.793C109.943 295.444 110.139 296.141 110.139 296.883H108.264C108.264 296.349 108.15 295.877 107.922 295.467C107.694 295.05 107.349 294.725 106.887 294.49C106.424 294.249 105.839 294.129 105.129 294.129C104.458 294.129 103.905 294.23 103.469 294.432C103.033 294.633 102.707 294.907 102.492 295.252C102.284 295.597 102.18 295.991 102.18 296.434C102.18 296.733 102.242 297.007 102.365 297.254C102.495 297.495 102.694 297.719 102.961 297.928C103.234 298.136 103.579 298.328 103.996 298.504C104.419 298.68 104.924 298.849 105.51 299.012C106.317 299.24 107.014 299.493 107.6 299.773C108.186 300.053 108.667 300.369 109.045 300.721C109.429 301.066 109.712 301.46 109.895 301.902C110.083 302.339 110.178 302.833 110.178 303.387C110.178 303.966 110.061 304.49 109.826 304.959C109.592 305.428 109.257 305.828 108.82 306.16C108.384 306.492 107.86 306.749 107.248 306.932C106.643 307.107 105.965 307.195 105.217 307.195C104.559 307.195 103.911 307.104 103.273 306.922C102.642 306.74 102.066 306.466 101.545 306.102C101.031 305.737 100.617 305.288 100.305 304.754C99.9987 304.214 99.8457 303.589 99.8457 302.879H101.721C101.721 303.367 101.815 303.787 102.004 304.139C102.193 304.484 102.45 304.77 102.775 304.998C103.107 305.226 103.482 305.395 103.898 305.506C104.322 305.61 104.761 305.662 105.217 305.662C105.874 305.662 106.431 305.571 106.887 305.389C107.342 305.206 107.688 304.946 107.922 304.607C108.163 304.269 108.283 303.868 108.283 303.406ZM120.158 303.406C120.158 303.074 120.106 302.781 120.002 302.527C119.904 302.267 119.729 302.033 119.475 301.824C119.227 301.616 118.882 301.417 118.439 301.229C118.003 301.04 117.45 300.848 116.779 300.652C116.076 300.444 115.441 300.213 114.875 299.959C114.309 299.699 113.824 299.402 113.42 299.07C113.016 298.738 112.707 298.357 112.492 297.928C112.277 297.498 112.17 297.007 112.17 296.453C112.17 295.9 112.284 295.389 112.512 294.92C112.74 294.451 113.065 294.044 113.488 293.699C113.918 293.348 114.429 293.074 115.021 292.879C115.614 292.684 116.275 292.586 117.004 292.586C118.072 292.586 118.977 292.791 119.719 293.201C120.467 293.605 121.037 294.135 121.428 294.793C121.818 295.444 122.014 296.141 122.014 296.883H120.139C120.139 296.349 120.025 295.877 119.797 295.467C119.569 295.05 119.224 294.725 118.762 294.49C118.299 294.249 117.714 294.129 117.004 294.129C116.333 294.129 115.78 294.23 115.344 294.432C114.908 294.633 114.582 294.907 114.367 295.252C114.159 295.597 114.055 295.991 114.055 296.434C114.055 296.733 114.117 297.007 114.24 297.254C114.37 297.495 114.569 297.719 114.836 297.928C115.109 298.136 115.454 298.328 115.871 298.504C116.294 298.68 116.799 298.849 117.385 299.012C118.192 299.24 118.889 299.493 119.475 299.773C120.061 300.053 120.542 300.369 120.92 300.721C121.304 301.066 121.587 301.46 121.77 301.902C121.958 302.339 122.053 302.833 122.053 303.387C122.053 303.966 121.936 304.49 121.701 304.959C121.467 305.428 121.132 305.828 120.695 306.16C120.259 306.492 119.735 306.749 119.123 306.932C118.518 307.107 117.84 307.195 117.092 307.195C116.434 307.195 115.786 307.104 115.148 306.922C114.517 306.74 113.941 306.466 113.42 306.102C112.906 305.737 112.492 305.288 112.18 304.754C111.874 304.214 111.721 303.589 111.721 302.879H113.596C113.596 303.367 113.69 303.787 113.879 304.139C114.068 304.484 114.325 304.77 114.65 304.998C114.982 305.226 115.357 305.395 115.773 305.506C116.197 305.61 116.636 305.662 117.092 305.662C117.749 305.662 118.306 305.571 118.762 305.389C119.217 305.206 119.562 304.946 119.797 304.607C120.038 304.269 120.158 303.868 120.158 303.406ZM128.303 307H125.334L125.354 305.467H128.303C129.318 305.467 130.165 305.255 130.842 304.832C131.519 304.402 132.027 303.803 132.365 303.035C132.71 302.26 132.883 301.355 132.883 300.32V299.451C132.883 298.637 132.785 297.915 132.59 297.283C132.395 296.645 132.108 296.108 131.73 295.672C131.353 295.229 130.891 294.894 130.344 294.666C129.803 294.438 129.182 294.324 128.479 294.324H125.275V292.781H128.479C129.41 292.781 130.259 292.938 131.027 293.25C131.796 293.556 132.456 294.002 133.01 294.588C133.57 295.167 133.999 295.87 134.299 296.697C134.598 297.518 134.748 298.442 134.748 299.471V300.32C134.748 301.349 134.598 302.277 134.299 303.104C133.999 303.924 133.566 304.624 133 305.203C132.44 305.783 131.763 306.229 130.969 306.541C130.181 306.847 129.292 307 128.303 307ZM126.34 292.781V307H124.455V292.781H126.34ZM139.465 292.781V307H137.58V292.781H139.465ZM145.422 299.178V300.721H139.055V299.178H145.422ZM146.389 292.781V294.324H139.055V292.781H146.389Z" fill="black"/>
</g>
<rect x="1" y="1" width="664" height="664" stroke="black"/>
<defs>
<clipPath id="clip0_229_4954">
<rect x="1" y="1" width="664" height="664" fill="white"/>
</clipPath>
</defs>
</svg>
