<svg width="666" height="666" viewBox="0 0 666 666" fill="none" xmlns="http://www.w3.org/2000/svg">
<g clip-path="url(#clip0_232_14215)">
<rect x="84" y="333" width="41.5" height="41.5" fill="black"/>
<rect x="167" y="457.5" width="41.5" height="41.5" fill="black"/>
<rect x="208.5" y="374.5" width="41.5" height="41.5" fill="black"/>
<line x1="105.582" y1="353.195" x2="188.582" y2="477.695" stroke="black" stroke-width="2"/>
<line x1="187.218" y1="478.047" x2="354.755" y2="518.778" stroke="black" stroke-width="2"/>
<rect x="250" y="208.5" width="41.5" height="41.5" fill="black"/>
<line x1="269.812" y1="230.051" x2="105.349" y2="353.014" stroke="black" stroke-width="2"/>
<rect x="374.5" y="291.5" width="41.5" height="41.5" fill="black"/>
<line x1="394.701" y1="312.317" x2="269.433" y2="230.086" stroke="black" stroke-width="2"/>
<rect x="333" y="499" width="41.5" height="41.5" fill="black"/>
<line x1="352.769" y1="520.322" x2="394.269" y2="312.822" stroke="black" stroke-width="2"/>
<rect x="1" y="333" width="41.5" height="41.5" stroke="black" stroke-opacity="0.2"/>
<rect x="1" y="374.5" width="41.5" height="41.5" stroke="black" stroke-opacity="0.2"/>
<rect x="1" y="416" width="41.5" height="41.5" stroke="black" stroke-opacity="0.2"/>
<rect x="1" y="457.5" width="41.5" height="41.5" stroke="black" stroke-opacity="0.2"/>
<rect x="1" y="499" width="41.5" height="41.5" stroke="black" stroke-opacity="0.2"/>
<rect x="1" y="540.5" width="41.5" height="41.5" stroke="black" stroke-opacity="0.2"/>
<rect x="1" y="582" width="41.5" height="41.5" stroke="black" stroke-opacity="0.2"/>
<rect x="1" y="623.5" width="41.5" height="41.5" stroke="black" stroke-opacity="0.2"/>
<rect x="84" y="333" width="41.5" height="41.5" stroke="black" stroke-opacity="0.2"/>
<rect x="84" y="374.5" width="41.5" height="41.5" stroke="black" stroke-opacity="0.2"/>
<rect x="84" y="416" width="41.5" height="41.5" stroke="black" stroke-opacity="0.2"/>
<rect x="84" y="457.5" width="41.5" height="41.5" stroke="black" stroke-opacity="0.2"/>
<rect x="84" y="499" width="41.5" height="41.5" stroke="black" stroke-opacity="0.2"/>
<rect x="84" y="540.5" width="41.5" height="41.5" stroke="black" stroke-opacity="0.2"/>
<rect x="84" y="582" width="41.5" height="41.5" stroke="black" stroke-opacity="0.2"/>
<rect x="84" y="623.5" width="41.5" height="41.5" stroke="black" stroke-opacity="0.2"/>
<rect x="167" y="333" width="41.5" height="41.5" stroke="black" stroke-opacity="0.2"/>
<rect x="167" y="374.5" width="41.5" height="41.5" stroke="black" stroke-opacity="0.2"/>
<rect x="167" y="416" width="41.5" height="41.5" stroke="black" stroke-opacity="0.2"/>
<rect x="167" y="457.5" width="41.5" height="41.5" stroke="black" stroke-opacity="0.2"/>
<rect x="167" y="499" width="41.5" height="41.5" stroke="black" stroke-opacity="0.2"/>
<rect x="167" y="540.5" width="41.5" height="41.5" stroke="black" stroke-opacity="0.2"/>
<rect x="167" y="582" width="41.5" height="41.5" stroke="black" stroke-opacity="0.2"/>
<rect x="167" y="623.5" width="41.5" height="41.5" stroke="black" stroke-opacity="0.2"/>
<rect x="250" y="333" width="41.5" height="41.5" stroke="black" stroke-opacity="0.2"/>
<rect x="250" y="374.5" width="41.5" height="41.5" stroke="black" stroke-opacity="0.2"/>
<rect x="250" y="416" width="41.5" height="41.5" stroke="black" stroke-opacity="0.2"/>
<rect x="250" y="457.5" width="41.5" height="41.5" stroke="black" stroke-opacity="0.2"/>
<rect x="250" y="499" width="41.5" height="41.5" stroke="black" stroke-opacity="0.2"/>
<rect x="250" y="540.5" width="41.5" height="41.5" stroke="black" stroke-opacity="0.2"/>
<rect x="250" y="582" width="41.5" height="41.5" stroke="black" stroke-opacity="0.2"/>
<rect x="250" y="623.5" width="41.5" height="41.5" stroke="black" stroke-opacity="0.2"/>
<rect x="42.5" y="333" width="41.5" height="41.5" stroke="black" stroke-opacity="0.2"/>
<rect x="42.5" y="374.5" width="41.5" height="41.5" stroke="black" stroke-opacity="0.2"/>
<rect x="42.5" y="416" width="41.5" height="41.5" stroke="black" stroke-opacity="0.2"/>
<rect x="42.5" y="457.5" width="41.5" height="41.5" stroke="black" stroke-opacity="0.2"/>
<rect x="42.5" y="499" width="41.5" height="41.5" stroke="black" stroke-opacity="0.2"/>
<rect x="42.5" y="540.5" width="41.5" height="41.5" stroke="black" stroke-opacity="0.2"/>
<rect x="42.5" y="582" width="41.5" height="41.5" stroke="black" stroke-opacity="0.2"/>
<rect x="42.5" y="623.5" width="41.5" height="41.5" stroke="black" stroke-opacity="0.2"/>
<rect x="125.5" y="333" width="41.5" height="41.5" stroke="black" stroke-opacity="0.2"/>
<rect x="125.5" y="374.5" width="41.5" height="41.5" stroke="black" stroke-opacity="0.2"/>
<rect x="125.5" y="416" width="41.5" height="41.5" stroke="black" stroke-opacity="0.2"/>
<rect x="125.5" y="457.5" width="41.5" height="41.5" stroke="black" stroke-opacity="0.2"/>
<rect x="125.5" y="499" width="41.5" height="41.5" stroke="black" stroke-opacity="0.2"/>
<rect x="125.5" y="540.5" width="41.5" height="41.5" stroke="black" stroke-opacity="0.2"/>
<rect x="125.5" y="582" width="41.5" height="41.5" stroke="black" stroke-opacity="0.2"/>
<rect x="125.5" y="623.5" width="41.5" height="41.5" stroke="black" stroke-opacity="0.2"/>
<rect x="208.5" y="333" width="41.5" height="41.5" stroke="black" stroke-opacity="0.2"/>
<rect x="208.5" y="374.5" width="41.5" height="41.5" stroke="black" stroke-opacity="0.2"/>
<rect x="208.5" y="416" width="41.5" height="41.5" stroke="black" stroke-opacity="0.2"/>
<rect x="208.5" y="457.5" width="41.5" height="41.5" stroke="black" stroke-opacity="0.2"/>
<rect x="208.5" y="499" width="41.5" height="41.5" stroke="black" stroke-opacity="0.2"/>
<rect x="208.5" y="540.5" width="41.5" height="41.5" stroke="black" stroke-opacity="0.2"/>
<rect x="208.5" y="582" width="41.5" height="41.5" stroke="black" stroke-opacity="0.2"/>
<rect x="208.5" y="623.5" width="41.5" height="41.5" stroke="black" stroke-opacity="0.2"/>
<rect x="291.5" y="333" width="41.5" height="41.5" stroke="black" stroke-opacity="0.2"/>
<rect x="291.5" y="374.5" width="41.5" height="41.5" stroke="black" stroke-opacity="0.2"/>
<rect x="291.5" y="416" width="41.5" height="41.5" stroke="black" stroke-opacity="0.2"/>
<rect x="291.5" y="457.5" width="41.5" height="41.5" stroke="black" stroke-opacity="0.2"/>
<rect x="291.5" y="499" width="41.5" height="41.5" stroke="black" stroke-opacity="0.2"/>
<rect x="291.5" y="540.5" width="41.5" height="41.5" stroke="black" stroke-opacity="0.2"/>
<rect x="291.5" y="582" width="41.5" height="41.5" stroke="black" stroke-opacity="0.2"/>
<rect x="291.5" y="623.5" width="41.5" height="41.5" stroke="black" stroke-opacity="0.2"/>
<rect x="1" y="1" width="41.5" height="41.5" stroke="black" stroke-opacity="0.2"/>
<rect x="1" y="42.5" width="41.5" height="41.5" stroke="black" stroke-opacity="0.2"/>
<rect x="1" y="84" width="41.5" height="41.5" stroke="black" stroke-opacity="0.2"/>
<rect x="1" y="125.5" width="41.5" height="41.5" stroke="black" stroke-opacity="0.2"/>
<rect x="1" y="167" width="41.5" height="41.5" stroke="black" stroke-opacity="0.2"/>
<rect x="1" y="208.5" width="41.5" height="41.5" stroke="black" stroke-opacity="0.2"/>
<rect x="1" y="250" width="41.5" height="41.5" stroke="black" stroke-opacity="0.2"/>
<rect x="1" y="291.5" width="41.5" height="41.5" stroke="black" stroke-opacity="0.2"/>
<rect x="84" y="1" width="41.5" height="41.5" stroke="black" stroke-opacity="0.2"/>
<rect x="84" y="42.5" width="41.5" height="41.5" stroke="black" stroke-opacity="0.2"/>
<rect x="84" y="84" width="41.5" height="41.5" stroke="black" stroke-opacity="0.2"/>
<rect x="84" y="125.5" width="41.5" height="41.5" stroke="black" stroke-opacity="0.2"/>
<rect x="84" y="167" width="41.5" height="41.5" stroke="black" stroke-opacity="0.2"/>
<rect x="84" y="208.5" width="41.5" height="41.5" stroke="black" stroke-opacity="0.2"/>
<rect x="84" y="250" width="41.5" height="41.5" stroke="black" stroke-opacity="0.2"/>
<rect x="84" y="291.5" width="41.5" height="41.5" stroke="black" stroke-opacity="0.2"/>
<rect x="167" y="1" width="41.5" height="41.5" stroke="black" stroke-opacity="0.2"/>
<rect x="167" y="42.5" width="41.5" height="41.5" stroke="black" stroke-opacity="0.2"/>
<rect x="167" y="84" width="41.5" height="41.5" stroke="black" stroke-opacity="0.2"/>
<rect x="167" y="125.5" width="41.5" height="41.5" stroke="black" stroke-opacity="0.2"/>
<rect x="167" y="167" width="41.5" height="41.5" stroke="black" stroke-opacity="0.2"/>
<rect x="167" y="208.5" width="41.5" height="41.5" stroke="black" stroke-opacity="0.2"/>
<rect x="167" y="250" width="41.5" height="41.5" stroke="black" stroke-opacity="0.2"/>
<rect x="167" y="291.5" width="41.5" height="41.5" stroke="black" stroke-opacity="0.2"/>
<rect x="250" y="1" width="41.5" height="41.5" stroke="black" stroke-opacity="0.2"/>
<rect x="250" y="42.5" width="41.5" height="41.5" stroke="black" stroke-opacity="0.2"/>
<rect x="250" y="84" width="41.5" height="41.5" stroke="black" stroke-opacity="0.2"/>
<rect x="250" y="125.5" width="41.5" height="41.5" stroke="black" stroke-opacity="0.2"/>
<rect x="250" y="167" width="41.5" height="41.5" stroke="black" stroke-opacity="0.2"/>
<rect x="250" y="208.5" width="41.5" height="41.5" stroke="black" stroke-opacity="0.2"/>
<rect x="250" y="250" width="41.5" height="41.5" stroke="black" stroke-opacity="0.2"/>
<rect x="250" y="291.5" width="41.5" height="41.5" stroke="black" stroke-opacity="0.2"/>
<rect x="42.5" y="1" width="41.5" height="41.5" stroke="black" stroke-opacity="0.2"/>
<rect x="42.5" y="42.5" width="41.5" height="41.5" stroke="black" stroke-opacity="0.2"/>
<rect x="42.5" y="84" width="41.5" height="41.5" stroke="black" stroke-opacity="0.2"/>
<rect x="42.5" y="125.5" width="41.5" height="41.5" stroke="black" stroke-opacity="0.2"/>
<rect x="42.5" y="167" width="41.5" height="41.5" stroke="black" stroke-opacity="0.2"/>
<rect x="42.5" y="208.5" width="41.5" height="41.5" stroke="black" stroke-opacity="0.2"/>
<rect x="42.5" y="250" width="41.5" height="41.5" stroke="black" stroke-opacity="0.2"/>
<rect x="42.5" y="291.5" width="41.5" height="41.5" stroke="black" stroke-opacity="0.2"/>
<rect x="125.5" y="1" width="41.5" height="41.5" stroke="black" stroke-opacity="0.2"/>
<rect x="125.5" y="42.5" width="41.5" height="41.5" stroke="black" stroke-opacity="0.2"/>
<rect x="125.5" y="84" width="41.5" height="41.5" stroke="black" stroke-opacity="0.2"/>
<rect x="125.5" y="125.5" width="41.5" height="41.5" stroke="black" stroke-opacity="0.2"/>
<rect x="125.5" y="167" width="41.5" height="41.5" stroke="black" stroke-opacity="0.2"/>
<rect x="125.5" y="208.5" width="41.5" height="41.5" stroke="black" stroke-opacity="0.2"/>
<rect x="125.5" y="250" width="41.5" height="41.5" stroke="black" stroke-opacity="0.2"/>
<rect x="125.5" y="291.5" width="41.5" height="41.5" stroke="black" stroke-opacity="0.2"/>
<rect x="208.5" y="1" width="41.5" height="41.5" stroke="black" stroke-opacity="0.2"/>
<rect x="208.5" y="42.5" width="41.5" height="41.5" stroke="black" stroke-opacity="0.2"/>
<rect x="208.5" y="84" width="41.5" height="41.5" stroke="black" stroke-opacity="0.2"/>
<rect x="208.5" y="125.5" width="41.5" height="41.5" stroke="black" stroke-opacity="0.2"/>
<rect x="208.5" y="167" width="41.5" height="41.5" stroke="black" stroke-opacity="0.2"/>
<rect x="208.5" y="208.5" width="41.5" height="41.5" stroke="black" stroke-opacity="0.2"/>
<rect x="208.5" y="250" width="41.5" height="41.5" stroke="black" stroke-opacity="0.2"/>
<rect x="208.5" y="291.5" width="41.5" height="41.5" stroke="black" stroke-opacity="0.2"/>
<rect x="291.5" y="1" width="41.5" height="41.5" stroke="black" stroke-opacity="0.2"/>
<rect x="291.5" y="42.5" width="41.5" height="41.5" stroke="black" stroke-opacity="0.2"/>
<rect x="291.5" y="84" width="41.5" height="41.5" stroke="black" stroke-opacity="0.2"/>
<rect x="291.5" y="125.5" width="41.5" height="41.5" stroke="black" stroke-opacity="0.2"/>
<rect x="291.5" y="167" width="41.5" height="41.5" stroke="black" stroke-opacity="0.2"/>
<rect x="291.5" y="208.5" width="41.5" height="41.5" stroke="black" stroke-opacity="0.2"/>
<rect x="291.5" y="250" width="41.5" height="41.5" stroke="black" stroke-opacity="0.2"/>
<rect x="291.5" y="291.5" width="41.5" height="41.5" stroke="black" stroke-opacity="0.2"/>
<rect x="333" y="1" width="41.5" height="41.5" stroke="black" stroke-opacity="0.2"/>
<rect x="333" y="42.5" width="41.5" height="41.5" stroke="black" stroke-opacity="0.2"/>
<rect x="333" y="84" width="41.5" height="41.5" stroke="black" stroke-opacity="0.2"/>
<rect x="333" y="125.5" width="41.5" height="41.5" stroke="black" stroke-opacity="0.2"/>
<rect x="333" y="167" width="41.5" height="41.5" stroke="black" stroke-opacity="0.2"/>
<rect x="333" y="208.5" width="41.5" height="41.5" stroke="black" stroke-opacity="0.2"/>
<rect x="333" y="250" width="41.5" height="41.5" stroke="black" stroke-opacity="0.2"/>
<rect x="333" y="291.5" width="41.5" height="41.5" stroke="black" stroke-opacity="0.2"/>
<rect x="416" y="1" width="41.5" height="41.5" stroke="black" stroke-opacity="0.2"/>
<rect x="416" y="42.5" width="41.5" height="41.5" stroke="black" stroke-opacity="0.2"/>
<rect x="416" y="84" width="41.5" height="41.5" stroke="black" stroke-opacity="0.2"/>
<rect x="416" y="125.5" width="41.5" height="41.5" stroke="black" stroke-opacity="0.2"/>
<rect x="416" y="167" width="41.5" height="41.5" stroke="black" stroke-opacity="0.2"/>
<rect x="416" y="208.5" width="41.5" height="41.5" stroke="black" stroke-opacity="0.2"/>
<rect x="416" y="250" width="41.5" height="41.5" stroke="black" stroke-opacity="0.2"/>
<rect x="416" y="291.5" width="41.5" height="41.5" stroke="black" stroke-opacity="0.2"/>
<rect x="499" y="1" width="41.5" height="41.5" stroke="black" stroke-opacity="0.2"/>
<rect x="499" y="42.5" width="41.5" height="41.5" stroke="black" stroke-opacity="0.2"/>
<rect x="499" y="84" width="41.5" height="41.5" stroke="black" stroke-opacity="0.2"/>
<rect x="499" y="125.5" width="41.5" height="41.5" stroke="black" stroke-opacity="0.2"/>
<rect x="499" y="167" width="41.5" height="41.5" stroke="black" stroke-opacity="0.2"/>
<rect x="499" y="208.5" width="41.5" height="41.5" stroke="black" stroke-opacity="0.2"/>
<rect x="499" y="250" width="41.5" height="41.5" stroke="black" stroke-opacity="0.2"/>
<rect x="499" y="291.5" width="41.5" height="41.5" stroke="black" stroke-opacity="0.2"/>
<rect x="582" y="1" width="41.5" height="41.5" stroke="black" stroke-opacity="0.2"/>
<rect x="582" y="42.5" width="41.5" height="41.5" stroke="black" stroke-opacity="0.2"/>
<rect x="582" y="84" width="41.5" height="41.5" stroke="black" stroke-opacity="0.2"/>
<rect x="582" y="125.5" width="41.5" height="41.5" stroke="black" stroke-opacity="0.2"/>
<rect x="582" y="167" width="41.5" height="41.5" stroke="black" stroke-opacity="0.2"/>
<rect x="582" y="208.5" width="41.5" height="41.5" stroke="black" stroke-opacity="0.2"/>
<rect x="582" y="250" width="41.5" height="41.5" stroke="black" stroke-opacity="0.2"/>
<rect x="582" y="291.5" width="41.5" height="41.5" stroke="black" stroke-opacity="0.2"/>
<rect x="374.5" y="1" width="41.5" height="41.5" stroke="black" stroke-opacity="0.2"/>
<rect x="374.5" y="42.5" width="41.5" height="41.5" stroke="black" stroke-opacity="0.2"/>
<rect x="374.5" y="84" width="41.5" height="41.5" stroke="black" stroke-opacity="0.2"/>
<rect x="374.5" y="125.5" width="41.5" height="41.5" stroke="black" stroke-opacity="0.2"/>
<rect x="374.5" y="167" width="41.5" height="41.5" stroke="black" stroke-opacity="0.2"/>
<rect x="374.5" y="208.5" width="41.5" height="41.5" stroke="black" stroke-opacity="0.2"/>
<rect x="374.5" y="250" width="41.5" height="41.5" stroke="black" stroke-opacity="0.2"/>
<rect x="374.5" y="291.5" width="41.5" height="41.5" stroke="black" stroke-opacity="0.2"/>
<rect x="457.5" y="1" width="41.5" height="41.5" stroke="black" stroke-opacity="0.2"/>
<rect x="457.5" y="42.5" width="41.5" height="41.5" stroke="black" stroke-opacity="0.2"/>
<rect x="457.5" y="84" width="41.5" height="41.5" stroke="black" stroke-opacity="0.2"/>
<rect x="457.5" y="125.5" width="41.5" height="41.5" stroke="black" stroke-opacity="0.2"/>
<rect x="457.5" y="167" width="41.5" height="41.5" stroke="black" stroke-opacity="0.2"/>
<rect x="457.5" y="208.5" width="41.5" height="41.5" stroke="black" stroke-opacity="0.2"/>
<rect x="457.5" y="250" width="41.5" height="41.5" stroke="black" stroke-opacity="0.2"/>
<rect x="457.5" y="291.5" width="41.5" height="41.5" stroke="black" stroke-opacity="0.2"/>
<rect x="540.5" y="1" width="41.5" height="41.5" stroke="black" stroke-opacity="0.2"/>
<rect x="540.5" y="42.5" width="41.5" height="41.5" stroke="black" stroke-opacity="0.2"/>
<rect x="540.5" y="84" width="41.5" height="41.5" stroke="black" stroke-opacity="0.2"/>
<rect x="540.5" y="125.5" width="41.5" height="41.5" stroke="black" stroke-opacity="0.2"/>
<rect x="540.5" y="167" width="41.5" height="41.5" stroke="black" stroke-opacity="0.2"/>
<rect x="540.5" y="208.5" width="41.5" height="41.5" stroke="black" stroke-opacity="0.2"/>
<rect x="540.5" y="250" width="41.5" height="41.5" stroke="black" stroke-opacity="0.2"/>
<rect x="540.5" y="291.5" width="41.5" height="41.5" stroke="black" stroke-opacity="0.2"/>
<rect x="623.5" y="1" width="41.5" height="41.5" stroke="black" stroke-opacity="0.2"/>
<rect x="623.5" y="42.5" width="41.5" height="41.5" stroke="black" stroke-opacity="0.2"/>
<rect x="623.5" y="84" width="41.5" height="41.5" stroke="black" stroke-opacity="0.2"/>
<rect x="623.5" y="125.5" width="41.5" height="41.5" stroke="black" stroke-opacity="0.2"/>
<rect x="623.5" y="167" width="41.5" height="41.5" stroke="black" stroke-opacity="0.2"/>
<rect x="623.5" y="208.5" width="41.5" height="41.5" stroke="black" stroke-opacity="0.2"/>
<rect x="623.5" y="250" width="41.5" height="41.5" stroke="black" stroke-opacity="0.2"/>
<rect x="623.5" y="291.5" width="41.5" height="41.5" stroke="black" stroke-opacity="0.2"/>
<rect x="333" y="333" width="41.5" height="41.5" stroke="black" stroke-opacity="0.2"/>
<rect x="333" y="374.5" width="41.5" height="41.5" stroke="black" stroke-opacity="0.2"/>
<rect x="333" y="416" width="41.5" height="41.5" stroke="black" stroke-opacity="0.2"/>
<rect x="333" y="457.5" width="41.5" height="41.5" stroke="black" stroke-opacity="0.2"/>
<rect x="333" y="499" width="41.5" height="41.5" stroke="black" stroke-opacity="0.2"/>
<rect x="333" y="540.5" width="41.5" height="41.5" stroke="black" stroke-opacity="0.2"/>
<rect x="333" y="582" width="41.5" height="41.5" stroke="black" stroke-opacity="0.2"/>
<rect x="333" y="623.5" width="41.5" height="41.5" stroke="black" stroke-opacity="0.2"/>
<rect x="416" y="333" width="41.5" height="41.5" stroke="black" stroke-opacity="0.2"/>
<rect x="416" y="374.5" width="41.5" height="41.5" stroke="black" stroke-opacity="0.2"/>
<rect x="416" y="416" width="41.5" height="41.5" stroke="black" stroke-opacity="0.2"/>
<rect x="416" y="457.5" width="41.5" height="41.5" stroke="black" stroke-opacity="0.2"/>
<rect x="416" y="499" width="41.5" height="41.5" stroke="black" stroke-opacity="0.2"/>
<rect x="416" y="540.5" width="41.5" height="41.5" stroke="black" stroke-opacity="0.2"/>
<rect x="416" y="582" width="41.5" height="41.5" stroke="black" stroke-opacity="0.2"/>
<rect x="416" y="623.5" width="41.5" height="41.5" stroke="black" stroke-opacity="0.2"/>
<rect x="499" y="333" width="41.5" height="41.5" stroke="black" stroke-opacity="0.2"/>
<rect x="499" y="374.5" width="41.5" height="41.5" stroke="black" stroke-opacity="0.2"/>
<rect x="499" y="416" width="41.5" height="41.5" stroke="black" stroke-opacity="0.2"/>
<rect x="499" y="457.5" width="41.5" height="41.5" stroke="black" stroke-opacity="0.2"/>
<rect x="499" y="499" width="41.5" height="41.5" stroke="black" stroke-opacity="0.2"/>
<rect x="499" y="540.5" width="41.5" height="41.5" stroke="black" stroke-opacity="0.2"/>
<rect x="499" y="582" width="41.5" height="41.5" stroke="black" stroke-opacity="0.2"/>
<rect x="499" y="623.5" width="41.5" height="41.5" stroke="black" stroke-opacity="0.2"/>
<rect x="582" y="333" width="41.5" height="41.5" stroke="black" stroke-opacity="0.2"/>
<rect x="582" y="374.5" width="41.5" height="41.5" stroke="black" stroke-opacity="0.2"/>
<rect x="582" y="416" width="41.5" height="41.5" stroke="black" stroke-opacity="0.2"/>
<rect x="582" y="457.5" width="41.5" height="41.5" stroke="black" stroke-opacity="0.2"/>
<rect x="582" y="499" width="41.5" height="41.5" stroke="black" stroke-opacity="0.2"/>
<rect x="582" y="540.5" width="41.5" height="41.5" stroke="black" stroke-opacity="0.2"/>
<rect x="582" y="582" width="41.5" height="41.5" stroke="black" stroke-opacity="0.2"/>
<rect x="582" y="623.5" width="41.5" height="41.5" stroke="black" stroke-opacity="0.2"/>
<rect x="374.5" y="333" width="41.5" height="41.5" stroke="black" stroke-opacity="0.2"/>
<rect x="374.5" y="374.5" width="41.5" height="41.5" stroke="black" stroke-opacity="0.2"/>
<rect x="374.5" y="416" width="41.5" height="41.5" stroke="black" stroke-opacity="0.2"/>
<rect x="374.5" y="457.5" width="41.5" height="41.5" stroke="black" stroke-opacity="0.2"/>
<rect x="374.5" y="499" width="41.5" height="41.5" stroke="black" stroke-opacity="0.2"/>
<rect x="374.5" y="540.5" width="41.5" height="41.5" stroke="black" stroke-opacity="0.2"/>
<rect x="374.5" y="582" width="41.5" height="41.5" stroke="black" stroke-opacity="0.2"/>
<rect x="374.5" y="623.5" width="41.5" height="41.5" stroke="black" stroke-opacity="0.2"/>
<rect x="457.5" y="333" width="41.5" height="41.5" stroke="black" stroke-opacity="0.2"/>
<rect x="457.5" y="374.5" width="41.5" height="41.5" stroke="black" stroke-opacity="0.2"/>
<rect x="457.5" y="416" width="41.5" height="41.5" stroke="black" stroke-opacity="0.2"/>
<rect x="457.5" y="457.5" width="41.5" height="41.5" stroke="black" stroke-opacity="0.2"/>
<rect x="457.5" y="499" width="41.5" height="41.5" stroke="black" stroke-opacity="0.2"/>
<rect x="457.5" y="540.5" width="41.5" height="41.5" stroke="black" stroke-opacity="0.2"/>
<rect x="457.5" y="582" width="41.5" height="41.5" stroke="black" stroke-opacity="0.2"/>
<rect x="457.5" y="623.5" width="41.5" height="41.5" stroke="black" stroke-opacity="0.2"/>
<rect x="540.5" y="333" width="41.5" height="41.5" stroke="black" stroke-opacity="0.2"/>
<rect x="540.5" y="374.5" width="41.5" height="41.5" stroke="black" stroke-opacity="0.2"/>
<rect x="540.5" y="416" width="41.5" height="41.5" stroke="black" stroke-opacity="0.2"/>
<rect x="540.5" y="457.5" width="41.5" height="41.5" stroke="black" stroke-opacity="0.2"/>
<rect x="540.5" y="499" width="41.5" height="41.5" stroke="black" stroke-opacity="0.2"/>
<rect x="540.5" y="540.5" width="41.5" height="41.5" stroke="black" stroke-opacity="0.2"/>
<rect x="540.5" y="582" width="41.5" height="41.5" stroke="black" stroke-opacity="0.2"/>
<rect x="540.5" y="623.5" width="41.5" height="41.5" stroke="black" stroke-opacity="0.2"/>
<rect x="623.5" y="333" width="41.5" height="41.5" stroke="black" stroke-opacity="0.2"/>
<rect x="623.5" y="374.5" width="41.5" height="41.5" stroke="black" stroke-opacity="0.2"/>
<rect x="623.5" y="416" width="41.5" height="41.5" stroke="black" stroke-opacity="0.2"/>
<rect x="623.5" y="457.5" width="41.5" height="41.5" stroke="black" stroke-opacity="0.2"/>
<rect x="623.5" y="499" width="41.5" height="41.5" stroke="black" stroke-opacity="0.2"/>
<rect x="623.5" y="540.5" width="41.5" height="41.5" stroke="black" stroke-opacity="0.2"/>
<rect x="623.5" y="582" width="41.5" height="41.5" stroke="black" stroke-opacity="0.2"/>
<rect x="623.5" y="623.5" width="41.5" height="41.5" stroke="black" stroke-opacity="0.2"/>
</g>
<rect x="1" y="1" width="664" height="664" stroke="black"/>
<defs>
<clipPath id="clip0_232_14215">
<rect x="1" y="1" width="664" height="664" fill="white"/>
</clipPath>
</defs>
</svg>
