<svg width="673" height="674" viewBox="0 0 673 674" fill="none" xmlns="http://www.w3.org/2000/svg">
<g clip-path="url(#clip0_229_7377)">
<rect x="1" y="1" width="672" height="672" fill="#D2DCE5"/>
<rect x="1" y="1" width="672" height="168" fill="black"/>
<path d="M326.028 103C324.94 103 323.948 102.744 323.052 102.232C322.188 101.688 321.5 100.984 320.988 100.12C320.476 99.224 320.22 98.248 320.22 97.192V89.032C320.22 88.392 320.348 87.752 320.604 87.112C320.86 86.44 321.212 85.8 321.66 85.192C321.212 84.584 320.86 83.944 320.604 83.272C320.348 82.6 320.22 81.944 320.22 81.304V74.248C320.22 73.16 320.476 72.184 320.988 71.32C321.5 70.424 322.188 69.72 323.052 69.208C323.948 68.664 324.94 68.392 326.028 68.392H349.308C350.204 68.392 351.036 68.632 351.804 69.112C352.604 69.56 353.292 70.168 353.868 70.936C354.476 71.672 354.892 72.456 355.116 73.288V81.304C355.116 82.584 354.636 83.88 353.676 85.192C354.636 86.44 355.116 87.72 355.116 89.032V97.192C355.116 98.248 354.844 99.224 354.3 100.12C353.788 100.984 353.084 101.688 352.188 102.232C351.324 102.744 350.364 103 349.308 103H326.028ZM326.028 99.064H349.308C349.82 99.064 350.252 98.888 350.604 98.536C350.988 98.152 351.18 97.704 351.18 97.192V89.032C351.18 88.52 350.988 88.088 350.604 87.736C350.252 87.352 349.82 87.16 349.308 87.16H326.028C325.516 87.16 325.068 87.352 324.684 87.736C324.332 88.088 324.156 88.52 324.156 89.032V97.192C324.156 97.704 324.332 98.152 324.684 98.536C325.068 98.888 325.516 99.064 326.028 99.064ZM326.028 83.752H349.308C349.82 83.752 350.252 83.576 350.604 83.224C350.988 82.84 351.18 82.392 351.18 81.88V74.296C351.18 73.784 350.988 73.352 350.604 73C350.252 72.616 349.82 72.424 349.308 72.424H326.028C325.516 72.424 325.068 72.616 324.684 73C324.332 73.352 324.156 73.784 324.156 74.296V81.88C324.156 82.392 324.332 82.84 324.684 83.224C325.068 83.576 325.516 83.752 326.028 83.752Z" fill="white"/>
<rect x="1" y="1" width="672" height="168" stroke="black"/>
<path d="M403.814 439V426.04C403.814 424.952 404.07 423.976 404.582 423.112C405.094 422.216 405.782 421.512 406.646 421C407.542 420.488 408.534 420.232 409.622 420.232H432.902C433.414 420.232 433.846 420.056 434.198 419.704C434.582 419.32 434.774 418.872 434.774 418.36V410.248C434.774 409.736 434.582 409.304 434.198 408.952C433.846 408.568 433.414 408.376 432.902 408.376H409.622C409.11 408.376 408.662 408.568 408.278 408.952C407.926 409.304 407.75 409.736 407.75 410.248V411.592H403.814V410.248C403.814 409.16 404.07 408.184 404.582 407.32C405.094 406.424 405.782 405.72 406.646 405.208C407.542 404.664 408.534 404.392 409.622 404.392H432.902C433.958 404.392 434.918 404.664 435.782 405.208C436.678 405.72 437.382 406.424 437.894 407.32C438.438 408.184 438.71 409.16 438.71 410.248V418.36C438.71 419.416 438.438 420.392 437.894 421.288C437.382 422.152 436.678 422.856 435.782 423.4C434.918 423.912 433.958 424.168 432.902 424.168H409.622C409.11 424.168 408.662 424.36 408.278 424.744C407.926 425.096 407.75 425.528 407.75 426.04V433.192C407.75 433.704 407.926 434.152 408.278 434.536C408.662 434.888 409.11 435.064 409.622 435.064H438.71V439H403.814Z" fill="black"/>
<rect x="337" y="337" width="168" height="168" stroke="black"/>
<path d="M571.814 439V426.04C571.814 424.952 572.07 423.976 572.582 423.112C573.094 422.216 573.782 421.512 574.646 421C575.542 420.488 576.534 420.232 577.622 420.232H600.902C601.414 420.232 601.846 420.056 602.198 419.704C602.582 419.32 602.774 418.872 602.774 418.36V410.248C602.774 409.736 602.582 409.304 602.198 408.952C601.846 408.568 601.414 408.376 600.902 408.376H577.622C577.11 408.376 576.662 408.568 576.278 408.952C575.926 409.304 575.75 409.736 575.75 410.248V411.592H571.814V410.248C571.814 409.16 572.07 408.184 572.582 407.32C573.094 406.424 573.782 405.72 574.646 405.208C575.542 404.664 576.534 404.392 577.622 404.392H600.902C601.958 404.392 602.918 404.664 603.782 405.208C604.678 405.72 605.382 406.424 605.894 407.32C606.438 408.184 606.71 409.16 606.71 410.248V418.36C606.71 419.416 606.438 420.392 605.894 421.288C605.382 422.152 604.678 422.856 603.782 423.4C602.918 423.912 601.958 424.168 600.902 424.168H577.622C577.11 424.168 576.662 424.36 576.278 424.744C575.926 425.096 575.75 425.528 575.75 426.04V433.192C575.75 433.704 575.926 434.152 576.278 434.536C576.662 434.888 577.11 435.064 577.622 435.064H606.71V439H571.814Z" fill="black"/>
<rect x="505" y="337" width="168" height="168" stroke="black"/>
<rect x="169" y="337" width="168" height="168" fill="black"/>
<path d="M235.814 439V426.04C235.814 424.952 236.07 423.976 236.582 423.112C237.094 422.216 237.782 421.512 238.646 421C239.542 420.488 240.534 420.232 241.622 420.232H264.902C265.414 420.232 265.846 420.056 266.198 419.704C266.582 419.32 266.774 418.872 266.774 418.36V410.248C266.774 409.736 266.582 409.304 266.198 408.952C265.846 408.568 265.414 408.376 264.902 408.376H241.622C241.11 408.376 240.662 408.568 240.278 408.952C239.926 409.304 239.75 409.736 239.75 410.248V411.592H235.814V410.248C235.814 409.16 236.07 408.184 236.582 407.32C237.094 406.424 237.782 405.72 238.646 405.208C239.542 404.664 240.534 404.392 241.622 404.392H264.902C265.958 404.392 266.918 404.664 267.782 405.208C268.678 405.72 269.382 406.424 269.894 407.32C270.438 408.184 270.71 409.16 270.71 410.248V418.36C270.71 419.416 270.438 420.392 269.894 421.288C269.382 422.152 268.678 422.856 267.782 423.4C266.918 423.912 265.958 424.168 264.902 424.168H241.622C241.11 424.168 240.662 424.36 240.278 424.744C239.926 425.096 239.75 425.528 239.75 426.04V433.192C239.75 433.704 239.926 434.152 240.278 434.536C240.662 434.888 241.11 435.064 241.622 435.064H270.71V439H235.814Z" fill="white"/>
<rect x="169" y="337" width="168" height="168" stroke="black"/>
<path d="M67.8141 439V426.04C67.8141 424.952 68.0701 423.976 68.5821 423.112C69.0941 422.216 69.7821 421.512 70.6461 421C71.5421 420.488 72.5341 420.232 73.6221 420.232H96.9021C97.4141 420.232 97.8461 420.056 98.1981 419.704C98.5821 419.32 98.7741 418.872 98.7741 418.36V410.248C98.7741 409.736 98.5821 409.304 98.1981 408.952C97.8461 408.568 97.4141 408.376 96.9021 408.376H73.6221C73.1101 408.376 72.6621 408.568 72.2781 408.952C71.9261 409.304 71.7501 409.736 71.7501 410.248V411.592H67.8141V410.248C67.8141 409.16 68.0701 408.184 68.5821 407.32C69.0941 406.424 69.7821 405.72 70.6461 405.208C71.5421 404.664 72.5341 404.392 73.6221 404.392H96.9021C97.9581 404.392 98.9181 404.664 99.7821 405.208C100.678 405.72 101.382 406.424 101.894 407.32C102.438 408.184 102.71 409.16 102.71 410.248V418.36C102.71 419.416 102.438 420.392 101.894 421.288C101.382 422.152 100.678 422.856 99.7821 423.4C98.9181 423.912 97.9581 424.168 96.9021 424.168H73.6221C73.1101 424.168 72.6621 424.36 72.2781 424.744C71.9261 425.096 71.7501 425.528 71.7501 426.04V433.192C71.7501 433.704 71.9261 434.152 72.2781 434.536C72.6621 434.888 73.1101 435.064 73.6221 435.064H102.71V439H67.8141Z" fill="black"/>
<rect x="1" y="337" width="168" height="168" stroke="black"/>
<g clip-path="url(#clip1_229_7377)">
<path d="M44.637 564V533.856L39.309 540.24H34.173L43.245 529.44H48.621V564H44.637Z" fill="black"/>
</g>
<rect x="1" y="505" width="84" height="84" stroke="black"/>
<g clip-path="url(#clip2_229_7377)">
<path d="M44.637 648V617.856L39.309 624.24H34.173L43.245 613.44H48.621V648H44.637Z" fill="#446787"/>
</g>
<rect x="1" y="589" width="84" height="84" stroke="black"/>
<g clip-path="url(#clip3_229_7377)">
<rect x="169" y="505" width="84" height="84" fill="black"/>
<path d="M212.637 564V533.856L207.309 540.24H202.173L211.245 529.44H216.621V564H212.637Z" fill="white"/>
</g>
<rect x="169" y="505" width="84" height="84" stroke="black"/>
<g clip-path="url(#clip4_229_7377)">
<rect x="169" y="589" width="84" height="84" fill="white"/>
<path d="M212.637 648V617.856L207.309 624.24H202.173L211.245 613.44H216.621V648H212.637Z" fill="#446787"/>
</g>
<rect x="169" y="589" width="84" height="84" stroke="black"/>
<g clip-path="url(#clip5_229_7377)">
<path d="M380.637 564V533.856L375.309 540.24H370.173L379.245 529.44H384.621V564H380.637Z" fill="black"/>
</g>
<rect x="337" y="505" width="84" height="84" stroke="black"/>
<g clip-path="url(#clip6_229_7377)">
<path d="M380.637 648V617.856L375.309 624.24H370.173L379.245 613.44H384.621V648H380.637Z" fill="#446787"/>
</g>
<rect x="337" y="589" width="84" height="84" stroke="black"/>
<g clip-path="url(#clip7_229_7377)">
<path d="M548.637 564V533.856L543.309 540.24H538.173L547.245 529.44H552.621V564H548.637Z" fill="black"/>
</g>
<rect x="505" y="505" width="84" height="84" stroke="black"/>
<g clip-path="url(#clip8_229_7377)">
<path d="M548.637 648V617.856L543.309 624.24H538.173L547.245 613.44H552.621V648H548.637Z" fill="#446787"/>
<path d="M548.637 648V617.856L543.309 624.24H538.173L547.245 613.44H552.621V648H548.637Z" fill="#446787"/>
</g>
<rect x="505" y="589" width="84" height="84" stroke="black"/>
<g clip-path="url(#clip9_229_7377)">
<path d="M128.637 564V533.856L123.309 540.24H118.173L127.245 529.44H132.621V564H128.637Z" fill="black"/>
</g>
<rect x="85" y="505" width="84" height="84" stroke="black"/>
<g clip-path="url(#clip10_229_7377)">
<path d="M128.637 648V617.856L123.309 624.24H118.173L127.245 613.44H132.621V648H128.637Z" fill="#446787"/>
</g>
<rect x="85" y="589" width="84" height="84" stroke="black"/>
<g clip-path="url(#clip11_229_7377)">
<path d="M296.637 564V533.856L291.309 540.24H286.173L295.245 529.44H300.621V564H296.637Z" fill="black"/>
</g>
<rect x="253" y="505" width="84" height="84" stroke="black"/>
<g clip-path="url(#clip12_229_7377)">
<path d="M296.637 648V617.856L291.309 624.24H286.173L295.245 613.44H300.621V648H296.637Z" fill="#446787"/>
</g>
<rect x="253" y="589" width="84" height="84" stroke="black"/>
<g clip-path="url(#clip13_229_7377)">
<path d="M464.637 564V533.856L459.309 540.24H454.173L463.245 529.44H468.621V564H464.637Z" fill="black"/>
</g>
<rect x="421" y="505" width="84" height="84" stroke="black"/>
<g clip-path="url(#clip14_229_7377)">
<path d="M464.637 648V617.856L459.309 624.24H454.173L463.245 613.44H468.621V648H464.637Z" fill="#446787"/>
</g>
<rect x="421" y="589" width="84" height="84" stroke="black"/>
<g clip-path="url(#clip15_229_7377)">
<path d="M632.637 564V533.856L627.309 540.24H622.173L631.245 529.44H636.621V564H632.637Z" fill="black"/>
</g>
<rect x="589" y="505" width="84" height="84" stroke="black"/>
<g clip-path="url(#clip16_229_7377)">
<path d="M632.637 648V617.856L627.309 624.24H622.173L631.245 613.44H636.621V648H632.637Z" fill="#446787"/>
</g>
<rect x="589" y="589" width="84" height="84" stroke="black"/>
<rect x="1" y="169" width="336" height="168" fill="black"/>
<path d="M175.853 271V262.072H151.757V257.656L175.373 236.392H179.789V258.136H185.165V262.072H179.789V271H175.853ZM156.797 258.136H175.853V241.72L156.797 258.136Z" fill="white"/>
<rect x="1" y="169" width="336" height="168" stroke="black"/>
<path d="M511.853 271V262.072H487.757V257.656L511.373 236.392H515.789V258.136H521.165V262.072H515.789V271H511.853ZM492.797 258.136H511.853V241.72L492.797 258.136Z" fill="black"/>
<rect x="337" y="169" width="336" height="168" stroke="black"/>
</g>
<rect x="0.5" y="0.5" width="673" height="673" stroke="black"/>
<defs>
<clipPath id="clip0_229_7377">
<rect x="1" y="1" width="672" height="672" fill="white"/>
</clipPath>
<clipPath id="clip1_229_7377">
<rect x="1" y="505" width="84" height="84" fill="white"/>
</clipPath>
<clipPath id="clip2_229_7377">
<rect x="1" y="589" width="84" height="84" fill="white"/>
</clipPath>
<clipPath id="clip3_229_7377">
<rect x="169" y="505" width="84" height="84" fill="white"/>
</clipPath>
<clipPath id="clip4_229_7377">
<rect x="169" y="589" width="84" height="84" fill="white"/>
</clipPath>
<clipPath id="clip5_229_7377">
<rect x="337" y="505" width="84" height="84" fill="white"/>
</clipPath>
<clipPath id="clip6_229_7377">
<rect x="337" y="589" width="84" height="84" fill="white"/>
</clipPath>
<clipPath id="clip7_229_7377">
<rect x="505" y="505" width="84" height="84" fill="white"/>
</clipPath>
<clipPath id="clip8_229_7377">
<rect x="505" y="589" width="84" height="84" fill="white"/>
</clipPath>
<clipPath id="clip9_229_7377">
<rect x="85" y="505" width="84" height="84" fill="white"/>
</clipPath>
<clipPath id="clip10_229_7377">
<rect x="85" y="589" width="84" height="84" fill="white"/>
</clipPath>
<clipPath id="clip11_229_7377">
<rect x="253" y="505" width="84" height="84" fill="white"/>
</clipPath>
<clipPath id="clip12_229_7377">
<rect x="253" y="589" width="84" height="84" fill="white"/>
</clipPath>
<clipPath id="clip13_229_7377">
<rect x="421" y="505" width="84" height="84" fill="white"/>
</clipPath>
<clipPath id="clip14_229_7377">
<rect x="421" y="589" width="84" height="84" fill="white"/>
</clipPath>
<clipPath id="clip15_229_7377">
<rect x="589" y="505" width="84" height="84" fill="white"/>
</clipPath>
<clipPath id="clip16_229_7377">
<rect x="589" y="589" width="84" height="84" fill="white"/>
</clipPath>
</defs>
</svg>
