<svg width="664" height="664" viewBox="0 0 664 664" fill="none" xmlns="http://www.w3.org/2000/svg">
<g clip-path="url(#clip0_229_7747)">
<path d="M321.028 101C319.94 101 318.948 100.744 318.052 100.232C317.188 99.688 316.5 98.984 315.988 98.12C315.476 97.224 315.22 96.248 315.22 95.192V87.032C315.22 86.392 315.348 85.752 315.604 85.112C315.86 84.44 316.212 83.8 316.66 83.192C316.212 82.584 315.86 81.944 315.604 81.272C315.348 80.6 315.22 79.944 315.22 79.304V72.248C315.22 71.16 315.476 70.184 315.988 69.32C316.5 68.424 317.188 67.72 318.052 67.208C318.948 66.664 319.94 66.392 321.028 66.392H344.308C345.204 66.392 346.036 66.632 346.804 67.112C347.604 67.56 348.292 68.168 348.868 68.936C349.476 69.672 349.892 70.456 350.116 71.288V79.304C350.116 80.584 349.636 81.88 348.676 83.192C349.636 84.44 350.116 85.72 350.116 87.032V95.192C350.116 96.248 349.844 97.224 349.3 98.12C348.788 98.984 348.084 99.688 347.188 100.232C346.324 100.744 345.364 101 344.308 101H321.028ZM321.028 97.064H344.308C344.82 97.064 345.252 96.888 345.604 96.536C345.988 96.152 346.18 95.704 346.18 95.192V87.032C346.18 86.52 345.988 86.088 345.604 85.736C345.252 85.352 344.82 85.16 344.308 85.16H321.028C320.516 85.16 320.068 85.352 319.684 85.736C319.332 86.088 319.156 86.52 319.156 87.032V95.192C319.156 95.704 319.332 96.152 319.684 96.536C320.068 96.888 320.516 97.064 321.028 97.064ZM321.028 81.752H344.308C344.82 81.752 345.252 81.576 345.604 81.224C345.988 80.84 346.18 80.392 346.18 79.88V72.296C346.18 71.784 345.988 71.352 345.604 71C345.252 70.616 344.82 70.424 344.308 70.424H321.028C320.516 70.424 320.068 70.616 319.684 71C319.332 71.352 319.156 71.784 319.156 72.296V79.88C319.156 80.392 319.332 80.84 319.684 81.224C320.068 81.576 320.516 81.752 321.028 81.752Z" fill="black"/>
<rect width="664" height="166" stroke="black"/>
<path d="M397.814 433V420.04C397.814 418.952 398.07 417.976 398.582 417.112C399.094 416.216 399.782 415.512 400.646 415C401.542 414.488 402.534 414.232 403.622 414.232H426.902C427.414 414.232 427.846 414.056 428.198 413.704C428.582 413.32 428.774 412.872 428.774 412.36V404.248C428.774 403.736 428.582 403.304 428.198 402.952C427.846 402.568 427.414 402.376 426.902 402.376H403.622C403.11 402.376 402.662 402.568 402.278 402.952C401.926 403.304 401.75 403.736 401.75 404.248V405.592H397.814V404.248C397.814 403.16 398.07 402.184 398.582 401.32C399.094 400.424 399.782 399.72 400.646 399.208C401.542 398.664 402.534 398.392 403.622 398.392H426.902C427.958 398.392 428.918 398.664 429.782 399.208C430.678 399.72 431.382 400.424 431.894 401.32C432.438 402.184 432.71 403.16 432.71 404.248V412.36C432.71 413.416 432.438 414.392 431.894 415.288C431.382 416.152 430.678 416.856 429.782 417.4C428.918 417.912 427.958 418.168 426.902 418.168H403.622C403.11 418.168 402.662 418.36 402.278 418.744C401.926 419.096 401.75 419.528 401.75 420.04V427.192C401.75 427.704 401.926 428.152 402.278 428.536C402.662 428.888 403.11 429.064 403.622 429.064H432.71V433H397.814Z" fill="black"/>
<rect x="332" y="332" width="166" height="166" stroke="black"/>
<path d="M563.814 433V420.04C563.814 418.952 564.07 417.976 564.582 417.112C565.094 416.216 565.782 415.512 566.646 415C567.542 414.488 568.534 414.232 569.622 414.232H592.902C593.414 414.232 593.846 414.056 594.198 413.704C594.582 413.32 594.774 412.872 594.774 412.36V404.248C594.774 403.736 594.582 403.304 594.198 402.952C593.846 402.568 593.414 402.376 592.902 402.376H569.622C569.11 402.376 568.662 402.568 568.278 402.952C567.926 403.304 567.75 403.736 567.75 404.248V405.592H563.814V404.248C563.814 403.16 564.07 402.184 564.582 401.32C565.094 400.424 565.782 399.72 566.646 399.208C567.542 398.664 568.534 398.392 569.622 398.392H592.902C593.958 398.392 594.918 398.664 595.782 399.208C596.678 399.72 597.382 400.424 597.894 401.32C598.438 402.184 598.71 403.16 598.71 404.248V412.36C598.71 413.416 598.438 414.392 597.894 415.288C597.382 416.152 596.678 416.856 595.782 417.4C594.918 417.912 593.958 418.168 592.902 418.168H569.622C569.11 418.168 568.662 418.36 568.278 418.744C567.926 419.096 567.75 419.528 567.75 420.04V427.192C567.75 427.704 567.926 428.152 568.278 428.536C568.662 428.888 569.11 429.064 569.622 429.064H598.71V433H563.814Z" fill="black"/>
<rect x="498" y="332" width="166" height="166" stroke="black"/>
<path d="M231.814 433V420.04C231.814 418.952 232.07 417.976 232.582 417.112C233.094 416.216 233.782 415.512 234.646 415C235.542 414.488 236.534 414.232 237.622 414.232H260.902C261.414 414.232 261.846 414.056 262.198 413.704C262.582 413.32 262.774 412.872 262.774 412.36V404.248C262.774 403.736 262.582 403.304 262.198 402.952C261.846 402.568 261.414 402.376 260.902 402.376H237.622C237.11 402.376 236.662 402.568 236.278 402.952C235.926 403.304 235.75 403.736 235.75 404.248V405.592H231.814V404.248C231.814 403.16 232.07 402.184 232.582 401.32C233.094 400.424 233.782 399.72 234.646 399.208C235.542 398.664 236.534 398.392 237.622 398.392H260.902C261.958 398.392 262.918 398.664 263.782 399.208C264.678 399.72 265.382 400.424 265.894 401.32C266.438 402.184 266.71 403.16 266.71 404.248V412.36C266.71 413.416 266.438 414.392 265.894 415.288C265.382 416.152 264.678 416.856 263.782 417.4C262.918 417.912 261.958 418.168 260.902 418.168H237.622C237.11 418.168 236.662 418.36 236.278 418.744C235.926 419.096 235.75 419.528 235.75 420.04V427.192C235.75 427.704 235.926 428.152 236.278 428.536C236.662 428.888 237.11 429.064 237.622 429.064H266.71V433H231.814Z" fill="black"/>
<rect x="166" y="332" width="166" height="166" stroke="black"/>
<path d="M65.8141 433V420.04C65.8141 418.952 66.0701 417.976 66.5821 417.112C67.0941 416.216 67.7821 415.512 68.6461 415C69.5421 414.488 70.5341 414.232 71.6221 414.232H94.9021C95.4141 414.232 95.8461 414.056 96.1981 413.704C96.5821 413.32 96.7741 412.872 96.7741 412.36V404.248C96.7741 403.736 96.5821 403.304 96.1981 402.952C95.8461 402.568 95.4141 402.376 94.9021 402.376H71.6221C71.1101 402.376 70.6621 402.568 70.2781 402.952C69.9261 403.304 69.7501 403.736 69.7501 404.248V405.592H65.8141V404.248C65.8141 403.16 66.0701 402.184 66.5821 401.32C67.0941 400.424 67.7821 399.72 68.6461 399.208C69.5421 398.664 70.5341 398.392 71.6221 398.392H94.9021C95.9581 398.392 96.9181 398.664 97.7821 399.208C98.6781 399.72 99.3821 400.424 99.8941 401.32C100.438 402.184 100.71 403.16 100.71 404.248V412.36C100.71 413.416 100.438 414.392 99.8941 415.288C99.3821 416.152 98.6781 416.856 97.7821 417.4C96.9181 417.912 95.9581 418.168 94.9021 418.168H71.6221C71.1101 418.168 70.6621 418.36 70.2781 418.744C69.9261 419.096 69.7501 419.528 69.7501 420.04V427.192C69.7501 427.704 69.9261 428.152 70.2781 428.536C70.6621 428.888 71.1101 429.064 71.6221 429.064H100.71V433H65.8141Z" fill="black"/>
<rect y="332" width="166" height="166" stroke="black"/>
<g clip-path="url(#clip1_229_7747)">
<path d="M43.637 557V526.856L38.309 533.24H33.173L42.245 522.44H47.621V557H43.637Z" fill="black"/>
</g>
<rect y="498" width="83" height="83" stroke="black"/>
<g clip-path="url(#clip2_229_7747)">
<path d="M43.637 640V609.856L38.309 616.24H33.173L42.245 605.44H47.621V640H43.637Z" fill="#446787"/>
</g>
<rect y="581" width="83" height="83" stroke="black"/>
<g clip-path="url(#clip3_229_7747)">
<path d="M209.637 557V526.856L204.309 533.24H199.173L208.245 522.44H213.621V557H209.637Z" fill="black"/>
</g>
<rect x="166" y="498" width="83" height="83" stroke="black"/>
<g clip-path="url(#clip4_229_7747)">
<path d="M209.637 640V609.856L204.309 616.24H199.173L208.245 605.44H213.621V640H209.637Z" fill="#446787"/>
</g>
<rect x="166" y="581" width="83" height="83" stroke="black"/>
<g clip-path="url(#clip5_229_7747)">
<path d="M375.637 557V526.856L370.309 533.24H365.173L374.245 522.44H379.621V557H375.637Z" fill="black"/>
</g>
<rect x="332" y="498" width="83" height="83" stroke="black"/>
<g clip-path="url(#clip6_229_7747)">
<path d="M375.637 640V609.856L370.309 616.24H365.173L374.245 605.44H379.621V640H375.637Z" fill="#446787"/>
</g>
<rect x="332" y="581" width="83" height="83" stroke="black"/>
<g clip-path="url(#clip7_229_7747)">
<path d="M541.637 557V526.856L536.309 533.24H531.173L540.245 522.44H545.621V557H541.637Z" fill="black"/>
</g>
<rect x="498" y="498" width="83" height="83" stroke="black"/>
<g clip-path="url(#clip8_229_7747)">
<path d="M541.637 640V609.856L536.309 616.24H531.173L540.245 605.44H545.621V640H541.637Z" fill="#446787"/>
<path d="M541.637 640V609.856L536.309 616.24H531.173L540.245 605.44H545.621V640H541.637Z" fill="#446787"/>
</g>
<rect x="498" y="581" width="83" height="83" stroke="black"/>
<g clip-path="url(#clip9_229_7747)">
<path d="M126.637 557V526.856L121.309 533.24H116.173L125.245 522.44H130.621V557H126.637Z" fill="black"/>
</g>
<rect x="83" y="498" width="83" height="83" stroke="black"/>
<g clip-path="url(#clip10_229_7747)">
<path d="M126.637 640V609.856L121.309 616.24H116.173L125.245 605.44H130.621V640H126.637Z" fill="#446787"/>
</g>
<rect x="83" y="581" width="83" height="83" stroke="black"/>
<g clip-path="url(#clip11_229_7747)">
<path d="M292.637 557V526.856L287.309 533.24H282.173L291.245 522.44H296.621V557H292.637Z" fill="black"/>
</g>
<rect x="249" y="498" width="83" height="83" stroke="black"/>
<g clip-path="url(#clip12_229_7747)">
<path d="M292.637 640V609.856L287.309 616.24H282.173L291.245 605.44H296.621V640H292.637Z" fill="#446787"/>
</g>
<rect x="249" y="581" width="83" height="83" stroke="black"/>
<g clip-path="url(#clip13_229_7747)">
<path d="M458.637 557V526.856L453.309 533.24H448.173L457.245 522.44H462.621V557H458.637Z" fill="black"/>
</g>
<rect x="415" y="498" width="83" height="83" stroke="black"/>
<g clip-path="url(#clip14_229_7747)">
<path d="M458.637 640V609.856L453.309 616.24H448.173L457.245 605.44H462.621V640H458.637Z" fill="#446787"/>
</g>
<rect x="415" y="581" width="83" height="83" stroke="black"/>
<g clip-path="url(#clip15_229_7747)">
<path d="M624.637 557V526.856L619.309 533.24H614.173L623.245 522.44H628.621V557H624.637Z" fill="black"/>
</g>
<rect x="581" y="498" width="83" height="83" stroke="black"/>
<g clip-path="url(#clip16_229_7747)">
<path d="M624.637 640V609.856L619.309 616.24H614.173L623.245 605.44H628.621V640H624.637Z" fill="#446787"/>
</g>
<rect x="581" y="581" width="83" height="83" stroke="black"/>
<path d="M172.853 267V258.072H148.757V253.656L172.373 232.392H176.789V254.136H182.165V258.072H176.789V267H172.853ZM153.797 254.136H172.853V237.72L153.797 254.136Z" fill="black"/>
<rect y="166" width="332" height="166" stroke="black"/>
<path d="M504.853 267V258.072H480.757V253.656L504.373 232.392H508.789V254.136H514.165V258.072H508.789V267H504.853ZM485.797 254.136H504.853V237.72L485.797 254.136Z" fill="black"/>
<rect x="332" y="166" width="332" height="166" stroke="black"/>
</g>
<rect x="0.5" y="0.5" width="663" height="663" stroke="black"/>
<defs>
<clipPath id="clip0_229_7747">
<rect width="664" height="664" fill="white"/>
</clipPath>
<clipPath id="clip1_229_7747">
<rect y="498" width="83" height="83" fill="white"/>
</clipPath>
<clipPath id="clip2_229_7747">
<rect y="581" width="83" height="83" fill="white"/>
</clipPath>
<clipPath id="clip3_229_7747">
<rect x="166" y="498" width="83" height="83" fill="white"/>
</clipPath>
<clipPath id="clip4_229_7747">
<rect x="166" y="581" width="83" height="83" fill="white"/>
</clipPath>
<clipPath id="clip5_229_7747">
<rect x="332" y="498" width="83" height="83" fill="white"/>
</clipPath>
<clipPath id="clip6_229_7747">
<rect x="332" y="581" width="83" height="83" fill="white"/>
</clipPath>
<clipPath id="clip7_229_7747">
<rect x="498" y="498" width="83" height="83" fill="white"/>
</clipPath>
<clipPath id="clip8_229_7747">
<rect x="498" y="581" width="83" height="83" fill="white"/>
</clipPath>
<clipPath id="clip9_229_7747">
<rect x="83" y="498" width="83" height="83" fill="white"/>
</clipPath>
<clipPath id="clip10_229_7747">
<rect x="83" y="581" width="83" height="83" fill="white"/>
</clipPath>
<clipPath id="clip11_229_7747">
<rect x="249" y="498" width="83" height="83" fill="white"/>
</clipPath>
<clipPath id="clip12_229_7747">
<rect x="249" y="581" width="83" height="83" fill="white"/>
</clipPath>
<clipPath id="clip13_229_7747">
<rect x="415" y="498" width="83" height="83" fill="white"/>
</clipPath>
<clipPath id="clip14_229_7747">
<rect x="415" y="581" width="83" height="83" fill="white"/>
</clipPath>
<clipPath id="clip15_229_7747">
<rect x="581" y="498" width="83" height="83" fill="white"/>
</clipPath>
<clipPath id="clip16_229_7747">
<rect x="581" y="581" width="83" height="83" fill="white"/>
</clipPath>
</defs>
</svg>
